<svg width="20" height="20" viewBox="0 0 20 20" fill="none" xmlns="http://www.w3.org/2000/svg">
<path fill-rule="evenodd" clip-rule="evenodd" d="M18 0H2C0.89543 0 0 0.89543 0 2V18C0 19.1046 0.89543 20 2 20H18C19.1046 20 20 19.1046 20 18V2C20 0.89543 19.1046 0 18 0ZM12.5 6H15.0566C15.3326 6 15.5566 6.224 15.5566 6.5C15.5566 6.776 15.3326 7 15.0566 7H12.5C12.224 7 12 6.776 12 6.5C12 6.224 12.224 6 12.5 6ZM3.91992 6.38477H6.70508C8.34908 6.38477 9.33008 7.18905 9.33008 8.49805C9.33008 9.39605 8.66587 10.1796 7.79688 10.3086V10.4141C8.91887 10.4961 9.73438 11.3416 9.73438 12.4336C9.73537 13.9186 8.61369 14.8594 6.80469 14.8594H3.91992C3.41192 14.8594 3 14.4475 3 13.9395V7.30469C3 6.79669 3.41192 6.38477 3.91992 6.38477ZM16.998 11.5117C16.998 9.45672 15.8719 8.24023 13.9629 8.24023C12.0369 8.24023 10.8516 9.54434 10.8516 11.6523C10.8516 13.7543 12.0133 15 13.9863 15C15.5723 15 16.6893 14.2376 16.9473 13.0156H15.3555C15.1735 13.4436 14.7102 13.6836 14.0352 13.6836C13.1422 13.6836 12.5777 13.0841 12.5547 12.1211V12.0332H16.998V11.5117ZM4.77344 7.74023V9.89648H6.10547C7.06347 9.89748 7.58594 9.50327 7.58594 8.82227C7.58594 8.14727 7.09991 7.74023 6.25391 7.74023H4.77344ZM12.5605 10.9414C12.6185 10.1014 13.1777 9.55078 13.9707 9.55078C14.7687 9.55078 15.2843 10.0844 15.3203 10.9414H12.5605ZM4.77344 11.0957V13.5039H6.35352C7.37552 13.5039 7.92773 13.0732 7.92773 12.2812C7.92773 11.5052 7.3575 11.0957 6.3125 11.0957H4.77344Z" fill="#232632"/>
</svg>
