<svg width="20" height="20" viewBox="0 0 20 20" fill="none" xmlns="http://www.w3.org/2000/svg">
<path fill-rule="evenodd" clip-rule="evenodd" d="M18 0H2C0.89543 0 0 0.89543 0 2V18C0 19.1046 0.89543 20 2 20H18C19.1046 20 20 19.1046 20 18V2C20 0.89543 19.1046 0 18 0ZM13.4029 11.2H10V9.14286H15.6657C15.7171 9.44286 15.76 9.74286 15.76 10.1371C15.76 13.5657 13.4629 16 10 16C6.68286 16 4 13.3171 4 10C4 6.68286 6.68286 4 10 4C11.62 4 12.9743 4.59143 14.02 5.56857L12.3914 7.13714C11.9457 6.70857 11.1657 6.21143 10 6.21143C7.95143 6.21143 6.28 7.90857 6.28 10C6.28 12.0914 7.95143 13.7886 10 13.7886C12.3743 13.7886 13.2657 12.0829 13.4029 11.2Z" fill="#232632"/>
</svg>
