<svg width="20" height="20" viewBox="0 0 20 20" fill="none" xmlns="http://www.w3.org/2000/svg">
<path fill-rule="evenodd" clip-rule="evenodd" d="M9.99934 -2.47955e-05C4.47688 -2.47955e-05 0 4.47686 0 9.99932C0 14.2355 2.63557 17.8537 6.35525 19.3107C6.26787 18.5196 6.18893 17.306 6.39 16.4424C6.57172 15.6619 7.56254 11.472 7.56254 11.472C7.56254 11.472 7.26344 10.873 7.26344 9.98743C7.26344 8.59702 8.06934 7.55899 9.07279 7.55899C9.9259 7.55899 10.338 8.19948 10.338 8.96752C10.338 9.82547 9.79172 11.1082 9.50975 12.2969C9.27426 13.2921 10.0089 14.1037 10.9906 14.1037C12.7678 14.1037 14.1339 12.2298 14.1339 9.52481C14.1339 7.13063 12.4136 5.4567 9.95713 5.4567C7.11197 5.4567 5.44197 7.59071 5.44197 9.79612C5.44197 10.6555 5.77303 11.5771 6.18615 12.0781C6.26779 12.1771 6.27984 12.2638 6.25549 12.3649C6.17959 12.6807 6.0109 13.3599 5.97779 13.4989C5.9341 13.6819 5.83279 13.7208 5.64336 13.6326C4.39443 13.0513 3.61369 11.2254 3.61369 9.75883C3.61369 6.60456 5.90549 3.70776 10.2207 3.70776C13.6893 3.70776 16.3851 6.17957 16.3851 9.48293C16.3851 12.9291 14.2121 15.7025 11.1963 15.7025C10.183 15.7025 9.23049 15.1761 8.90443 14.5543C8.90443 14.5543 8.40303 16.4635 8.28148 16.9314C8.05566 17.7999 7.44631 18.8886 7.03869 19.5528C7.97426 19.8424 8.96852 19.9987 9.99934 19.9987C15.5219 19.9987 19.9988 15.5218 19.9988 9.99932C19.9988 4.47686 15.5219 -2.47955e-05 9.99934 -2.47955e-05Z" fill="#232632"/>
</svg>
