<svg width="20" height="20" viewBox="0 0 20 20" fill="none" xmlns="http://www.w3.org/2000/svg">
<path fill-rule="evenodd" clip-rule="evenodd" d="M10 2C6.78 2 2.60066 2.81039 2.60066 2.81039L2.59014 2.82246C1.12359 3.05805 0 4.32387 0 5.86329V10.4992V14.1352C0.00295634 15.6555 1.10408 16.947 2.59766 17.1836L2.60066 17.1881C2.60066 17.1881 6.78 18 10 18C13.22 18 17.3993 17.1881 17.3993 17.1881C18.8961 16.9505 19.9984 15.6571 20 14.1367V10.5008V5.86329C19.9978 4.34395 18.8965 3.05157 17.4023 2.81491C17.3993 2.81039 13.22 2 10 2ZM8 6.5L14 10L8 13.5V6.5Z" fill="#232632"/>
</svg>
