<svg width="20" height="20" viewBox="0 0 20 20" fill="none" xmlns="http://www.w3.org/2000/svg">
<path fill-rule="evenodd" clip-rule="evenodd" d="M12 9.5C11.1716 9.5 10.5 8.82843 10.5 8C10.5 7.17157 11.1716 6.5 12 6.5C12.8284 6.5 13.5 7.17157 13.5 8C13.5 8.82843 12.8284 9.5 12 9.5ZM12 17C11.4477 17 11 16.5523 11 16C11 15.4477 11.4477 15 12 15C12.5523 15 13 15.4477 13 16C13 16.5523 12.5523 17 12 17ZM12 13.5C11.1716 13.5 10.5 12.8284 10.5 12C10.5 11.1716 11.1716 10.5 12 10.5C12.8284 10.5 13.5 11.1716 13.5 12C13.5 12.8284 12.8284 13.5 12 13.5ZM12 5C11.4477 5 11 4.55228 11 4C11 3.44772 11.4477 3 12 3C12.5523 3 13 3.44772 13 4C13 4.55228 12.5523 5 12 5ZM1 7.5C1.28 7.5 1.5 7.72 1.5 8C1.5 8.28 1.28 8.5 1 8.5C0.72 8.5 0.5 8.28 0.5 8C0.5 7.72 0.72 7.5 1 7.5ZM12.5 1C12.5 1.28 12.28 1.5 12 1.5C11.72 1.5 11.5 1.28 11.5 1C11.5 0.72 11.72 0.5 12 0.5C12.28 0.5 12.5 0.72 12.5 1ZM19 12.5C18.72 12.5 18.5 12.28 18.5 12C18.5 11.72 18.72 11.5 19 11.5C19.28 11.5 19.5 11.72 19.5 12C19.5 12.28 19.28 12.5 19 12.5ZM16 17C15.4477 17 15 16.5523 15 16C15 15.4477 15.4477 15 16 15C16.5523 15 17 15.4477 17 16C17 16.5523 16.5523 17 16 17ZM11.5 19C11.5 18.72 11.72 18.5 12 18.5C12.28 18.5 12.5 18.72 12.5 19C12.5 19.28 12.28 19.5 12 19.5C11.72 19.5 11.5 19.28 11.5 19ZM19 8.5C18.72 8.5 18.5 8.28 18.5 8C18.5 7.72 18.72 7.5 19 7.5C19.28 7.5 19.5 7.72 19.5 8C19.5 8.28 19.28 8.5 19 8.5ZM16 13C15.4477 13 15 12.5523 15 12C15 11.4477 15.4477 11 16 11C16.5523 11 17 11.4477 17 12C17 12.5523 16.5523 13 16 13ZM16 5C15.4477 5 15 4.55228 15 4C15 3.44772 15.4477 3 16 3C16.5523 3 17 3.44772 17 4C17 4.55228 16.5523 5 16 5ZM4 17C3.44772 17 3 16.5523 3 16C3 15.4477 3.44772 15 4 15C4.55228 15 5 15.4477 5 16C5 16.5523 4.55228 17 4 17ZM4 13C3.44772 13 3 12.5523 3 12C3 11.4477 3.44772 11 4 11C4.55228 11 5 11.4477 5 12C5 12.5523 4.55228 13 4 13ZM1.5 12C1.5 12.28 1.28 12.5 1 12.5C0.72 12.5 0.5 12.28 0.5 12C0.5 11.72 0.72 11.5 1 11.5C1.28 11.5 1.5 11.72 1.5 12ZM8 5C7.44772 5 7 4.55228 7 4C7 3.44772 7.44772 3 8 3C8.55229 3 9 3.44772 9 4C9 4.55228 8.55229 5 8 5ZM4 9C3.44772 9 3 8.55229 3 8C3 7.44772 3.44772 7 4 7C4.55228 7 5 7.44772 5 8C5 8.55229 4.55228 9 4 9ZM4 5C3.44772 5 3 4.55228 3 4C3 3.44772 3.44772 3 4 3C4.55228 3 5 3.44772 5 4C5 4.55228 4.55228 5 4 5ZM7.5 19C7.5 18.72 7.72 18.5 8 18.5C8.28 18.5 8.5 18.72 8.5 19C8.5 19.28 8.28 19.5 8 19.5C7.72 19.5 7.5 19.28 7.5 19ZM8 17C7.44772 17 7 16.5523 7 16C7 15.4477 7.44772 15 8 15C8.55229 15 9 15.4477 9 16C9 16.5523 8.55229 17 8 17ZM8.5 1C8.5 1.28 8.28 1.5 8 1.5C7.72 1.5 7.5 1.28 7.5 1C7.5 0.72 7.72 0.5 8 0.5C8.28 0.5 8.5 0.72 8.5 1ZM8 13.5C7.17157 13.5 6.5 12.8284 6.5 12C6.5 11.1716 7.17157 10.5 8 10.5C8.82843 10.5 9.5 11.1716 9.5 12C9.5 12.8284 8.82843 13.5 8 13.5ZM8 9.5C7.17157 9.5 6.5 8.82843 6.5 8C6.5 7.17157 7.17157 6.5 8 6.5C8.82843 6.5 9.5 7.17157 9.5 8C9.5 8.82843 8.82843 9.5 8 9.5ZM16 9C15.4477 9 15 8.55229 15 8C15 7.44772 15.4477 7 16 7C16.5523 7 17 7.44772 17 8C17 8.55229 16.5523 9 16 9Z" fill="#232632"/>
</svg>
