<svg width="20" height="20" viewBox="0 0 20 20" fill="none" xmlns="http://www.w3.org/2000/svg">
<path fill-rule="evenodd" clip-rule="evenodd" d="M4 12V9C4 6.15326 6.38199 3.56056 9 3V2C9 1.32894 9.34417 1 10 1C10.6555 1 11 1.32894 11 2V3C13.618 3.56045 16 6.15294 16 9V12C17.1046 12 18 12.8954 18 14C18 15.1046 17.1046 16 16 16H4C2.89543 16 2 15.1046 2 14C2 12.8954 2.89543 12 4 12ZM10.0003 19C8.85647 19 8 18.1718 8 17H12C12.0002 18.1718 11.1441 19 10.0003 19ZM14.5 13.5V9C14.5 6.51472 12.4853 4.5 10 4.5C7.51472 4.5 5.5 6.51472 5.5 9V13.5H4C3.72386 13.5 3.5 13.7239 3.5 14C3.5 14.2761 3.72386 14.5 4 14.5H16C16.2761 14.5 16.5 14.2761 16.5 14C16.5 13.7239 16.2761 13.5 16 13.5H14.5Z" fill="#232632"/>
</svg>
