<svg width="20" height="20" viewBox="0 0 20 20" fill="none" xmlns="http://www.w3.org/2000/svg">
<path fill-rule="evenodd" clip-rule="evenodd" d="M12 5.5C11.72 5.5 11.5 5.28 11.5 5C11.5 4.72 11.72 4.5 12 4.5C12.28 4.5 12.5 4.72 12.5 5C12.5 5.28 12.28 5.5 12 5.5ZM12 9C11.4477 9 11 8.55229 11 8C11 7.44772 11.4477 7 12 7C12.5523 7 13 7.44772 13 8C13 8.55229 12.5523 9 12 9ZM12 13C11.4477 13 11 12.5523 11 12C11 11.4477 11.4477 11 12 11C12.5523 11 13 11.4477 13 12C13 12.5523 12.5523 13 12 13ZM8 14.5C8.28 14.5 8.5 14.72 8.5 15C8.5 15.28 8.28 15.5 8 15.5C7.72 15.5 7.5 15.28 7.5 15C7.5 14.72 7.72 14.5 8 14.5ZM8 9C7.44772 9 7 8.55229 7 8C7 7.44772 7.44772 7 8 7C8.55229 7 9 7.44772 9 8C9 8.55229 8.55229 9 8 9ZM5 11.5C5.28 11.5 5.5 11.72 5.5 12C5.5 12.28 5.28 12.5 5 12.5C4.72 12.5 4.5 12.28 4.5 12C4.5 11.72 4.72 11.5 5 11.5ZM10 0C15.52 0 20 4.48 20 10C20 15.52 15.52 20 10 20C4.48 20 0 15.52 0 10C0 4.48 4.48 0 10 0ZM10 18C14.42 18 18 14.42 18 10C18 5.58 14.42 2 10 2C5.58 2 2 5.58 2 10C2 14.42 5.58 18 10 18ZM5 7.5C5.28 7.5 5.5 7.72 5.5 8C5.5 8.28 5.28 8.5 5 8.5C4.72 8.5 4.5 8.28 4.5 8C4.5 7.72 4.72 7.5 5 7.5ZM8 13C7.44772 13 7 12.5523 7 12C7 11.4477 7.44772 11 8 11C8.55229 11 9 11.4477 9 12C9 12.5523 8.55229 13 8 13ZM8 5.5C7.72 5.5 7.5 5.28 7.5 5C7.5 4.72 7.72 4.5 8 4.5C8.28 4.5 8.5 4.72 8.5 5C8.5 5.28 8.28 5.5 8 5.5ZM12 14.5C12.28 14.5 12.5 14.72 12.5 15C12.5 15.28 12.28 15.5 12 15.5C11.72 15.5 11.5 15.28 11.5 15C11.5 14.72 11.72 14.5 12 14.5ZM15 7.5C15.28 7.5 15.5 7.72 15.5 8C15.5 8.28 15.28 8.5 15 8.5C14.72 8.5 14.5 8.28 14.5 8C14.5 7.72 14.72 7.5 15 7.5ZM15 11.5C15.28 11.5 15.5 11.72 15.5 12C15.5 12.28 15.28 12.5 15 12.5C14.72 12.5 14.5 12.28 14.5 12C14.5 11.72 14.72 11.5 15 11.5Z" fill="#232632"/>
</svg>
