<svg width="25" height="24" viewBox="0 0 25 24" fill="none" xmlns="http://www.w3.org/2000/svg">
<path fill-rule="evenodd" clip-rule="evenodd" d="M6.97214 18.0042H7.27712L5.04795 4.20567H2.64795V2.40002H6.57715L7.35035 7.20002H21.8773L20.6773 15.6H8.70306L9.09464 18H18.8153C18.8261 18.0001 18.837 18 18.8479 18C19.8421 18 20.6479 18.8059 20.6479 19.8C20.6479 20.7941 19.8421 21.6 18.8479 21.6C17.8538 21.6 17.0479 20.7941 17.0479 19.8C17.0479 19.792 17.048 19.7839 17.0481 19.7758H8.64779C8.6479 19.7839 8.64795 19.792 8.64795 19.8C8.64795 20.7941 7.84206 21.6 6.84795 21.6C5.85384 21.6 5.04795 20.7941 5.04795 19.8C5.04795 18.8059 5.85384 18 6.84795 18C6.88969 18 6.9311 18.0014 6.97214 18.0042ZM7.6399 9.00165L8.41552 13.7974H19.172L19.8629 9.00165H7.6399Z" fill="#191B23"/>
</svg>
