<svg width="20" height="20" viewBox="0 0 20 20" fill="none" xmlns="http://www.w3.org/2000/svg">
<path fill-rule="evenodd" clip-rule="evenodd" d="M10 3.5C6.41015 3.5 3.5 6.41015 3.5 10C3.5 13.5899 6.41015 16.5 10 16.5C13.5899 16.5 16.5 13.5899 16.5 10C16.5 9.04121 16.2924 8.13092 15.9197 7.31159L10.0206 13.0083L9.97298 12.959L6.54737 9.41332L7.62638 8.37133L10.0532 10.8916L15.1216 5.99711C13.9318 4.47699 12.08 3.5 10 3.5ZM10 18C5.58172 18 2 14.4183 2 10C2 5.58172 5.58172 2 10 2C14.4183 2 18 5.58172 18 10C18 14.4183 14.4183 18 10 18Z" fill="#232632"/>
</svg>
