<svg width="20" height="20" viewBox="0 0 20 20" fill="none" xmlns="http://www.w3.org/2000/svg">
<path fill-rule="evenodd" clip-rule="evenodd" d="M1.77674 0.0632201C1.02008 0.22707 0.323522 0.866578 0.088993 1.61277L0 1.89591V4.60983V7.32374L0.088993 7.60689C0.326529 8.36265 1.02289 8.99551 1.79626 9.15862C2.19972 9.24371 6.97683 9.24371 7.38029 9.15862C8.15365 8.99551 8.85002 8.36265 9.08755 7.60689L9.17655 7.32374V4.60983V1.89591L9.08755 1.61277C8.85002 0.857011 8.15365 0.224142 7.38029 0.0610334C6.98823 -0.0216336 2.15989 -0.0197593 1.77674 0.0632201ZM12.5231 0.0809875C12.0957 0.19298 11.7931 0.370146 11.4596 0.703587C11.1213 1.04183 10.948 1.34142 10.8352 1.78251C10.7623 2.06761 10.758 2.2224 10.758 4.60983C10.758 6.99725 10.7623 7.15204 10.8352 7.43714C10.948 7.87824 11.1213 8.17782 11.4596 8.51607C11.7978 8.85431 12.0974 9.02765 12.5385 9.1405C12.8236 9.21341 12.9784 9.21763 15.3658 9.21763C17.7533 9.21763 17.908 9.21341 18.1931 9.1405C18.6342 9.02765 18.9338 8.85431 19.2721 8.51607C19.6103 8.17782 19.7837 7.87824 19.8965 7.43714C19.9694 7.15204 19.9736 6.99725 19.9736 4.60983C19.9736 2.2224 19.9694 2.06761 19.8965 1.78251C19.7837 1.34142 19.6103 1.04183 19.2721 0.703587C18.9338 0.365343 18.6342 0.192004 18.1931 0.0791522C17.9075 0.00609123 17.7572 0.00214727 15.3498 0.00417783C12.9765 0.00616933 12.7892 0.0112848 12.5231 0.0809875ZM7.18504 1.6378C7.37408 1.72503 7.49306 1.84866 7.57366 2.04164C7.66468 2.25942 7.66468 6.96023 7.57366 7.17801C7.49306 7.37099 7.37408 7.49462 7.18504 7.58186C7.03853 7.64945 6.8778 7.65398 4.59679 7.6548C2.48864 7.65554 2.14544 7.64762 2.02009 7.59521C1.82711 7.51461 1.70348 7.39563 1.61624 7.2066C1.54865 7.06008 1.54412 6.89936 1.5433 4.61834C1.54256 2.5102 1.55048 2.16699 1.60289 2.04164C1.68349 1.84866 1.80247 1.72503 1.99151 1.6378C2.1381 1.57017 2.29796 1.56571 4.58827 1.56571C6.87858 1.56571 7.03845 1.57017 7.18504 1.6378ZM17.9861 1.67271C18.1546 1.76073 18.2149 1.82109 18.303 1.98959L18.4117 2.19769V4.60983V7.02197L18.303 7.23006C18.2149 7.39856 18.1546 7.45893 17.9861 7.54695L17.778 7.65566H15.3658H12.9537L12.7456 7.54695C12.5771 7.45893 12.5167 7.39856 12.4287 7.23006L12.32 7.02197V4.60983V2.19769L12.4287 1.98959C12.5167 1.82109 12.5771 1.76073 12.7456 1.67271L12.9537 1.564H15.3658H17.778L17.9861 1.67271ZM1.77674 10.8408C1.02008 11.0046 0.323522 11.6441 0.088993 12.3903L0 12.6735V15.3874V18.1013L0.088993 18.3844C0.326529 19.1402 1.02289 19.7731 1.79626 19.9362C2.19972 20.0213 6.97683 20.0213 7.38029 19.9362C8.15365 19.7731 8.85002 19.1402 9.08755 18.3844L9.17655 18.1013V15.3874V12.6735L9.08755 12.3903C8.85002 11.6346 8.15365 11.0017 7.38029 10.8386C6.98823 10.7559 2.15989 10.7578 1.77674 10.8408ZM12.5231 10.8585C12.0957 10.9705 11.7931 11.1477 11.4596 11.4811C11.1213 11.8194 10.948 12.119 10.8352 12.5601C10.7623 12.8452 10.758 13 10.758 15.3874C10.758 17.7748 10.7623 17.9296 10.8352 18.2147C10.948 18.6558 11.1213 18.9554 11.4596 19.2936C11.7978 19.6319 12.0974 19.8052 12.5385 19.9181C12.8236 19.991 12.9784 19.9952 15.3658 19.9952C17.7533 19.9952 17.908 19.991 18.1931 19.9181C18.6342 19.8052 18.9338 19.6319 19.2721 19.2936C19.6103 18.9554 19.7837 18.6558 19.8965 18.2147C19.9694 17.9296 19.9736 17.7748 19.9736 15.3874C19.9736 13 19.9694 12.8452 19.8965 12.5601C19.7837 12.119 19.6103 11.8194 19.2721 11.4811C18.9338 11.1429 18.6342 10.9696 18.1931 10.8567C17.9075 10.7837 17.7572 10.7797 15.3498 10.7817C12.9765 10.7837 12.7892 10.7888 12.5231 10.8585ZM7.18504 12.4154C7.37408 12.5026 7.49306 12.6262 7.57366 12.8192C7.66468 13.037 7.66468 17.7378 7.57366 17.9556C7.49306 18.1486 7.37408 18.2722 7.18504 18.3594C7.03853 18.427 6.8778 18.4315 4.59679 18.4324C2.48864 18.4331 2.14544 18.4252 2.02009 18.3728C1.82711 18.2922 1.70348 18.1732 1.61624 17.9842C1.54865 17.8376 1.54412 17.6769 1.5433 15.3959C1.54256 13.2878 1.55048 12.9446 1.60289 12.8192C1.68349 12.6262 1.80247 12.5026 1.99151 12.4154C2.1381 12.3477 2.29796 12.3433 4.58827 12.3433C6.87858 12.3433 7.03845 12.3477 7.18504 12.4154ZM17.9861 12.4503C18.1546 12.5383 18.2149 12.5987 18.303 12.7672L18.4117 12.9752V15.3874V17.7995L18.303 18.0076C18.2149 18.1761 18.1546 18.2365 17.9861 18.3245L17.778 18.4332H15.3658H12.9537L12.7456 18.3245C12.5771 18.2365 12.5167 18.1761 12.4287 18.0076L12.32 17.7995V15.3874V12.9752L12.4287 12.7672C12.5167 12.5987 12.5771 12.5383 12.7456 12.4503L12.9537 12.3416H15.3658H17.778L17.9861 12.4503Z" fill="#232632"/>
</svg>
