<svg width="20" height="20" viewBox="0 0 20 20" fill="none" xmlns="http://www.w3.org/2000/svg">
<path fill-rule="evenodd" clip-rule="evenodd" d="M0.732427 3.05439C0.46691 3.12456 0.130433 3.47478 0.0600799 3.75432C0.0221689 3.90484 0.00515343 4.60762 0.00515343 6.02337C0.00515343 8.30097 0.0169333 8.409 0.296147 8.69602C0.620751 9.02974 0.574753 9.02413 2.99147 9.02525C4.57429 9.026 5.21167 9.01076 5.35214 8.96878C5.6005 8.8946 5.9037 8.5914 5.97788 8.34304C6.01986 8.20257 6.0351 7.56519 6.03435 5.98237C6.03323 3.56565 6.03884 3.61165 5.70512 3.28704C5.41656 3.00629 5.31475 2.99554 3.00007 3.00087C1.7212 3.00386 0.845552 3.02452 0.732427 3.05439ZM8.65362 5.06764C8.30925 5.17731 7.99824 5.62813 7.99899 6.01659C7.99969 6.39902 8.23885 6.77284 8.58262 6.92902C8.76025 7.00971 9.04264 7.01419 14.0099 7.01517L19.2498 7.0162L19.4558 6.90836C19.6998 6.78065 19.9431 6.44698 19.9886 6.17767C20.0595 5.75766 19.7929 5.28155 19.3814 5.09359C19.2037 5.01244 18.9357 5.00837 14.0056 5.01192C10.3385 5.01459 8.76894 5.0309 8.65362 5.06764ZM4.02531 6.03454V7.0162H3.04364H2.06198V6.03454V5.05287H3.04364H4.02531V6.03454ZM0.636224 11.0771C0.367949 11.1996 0.153992 11.4403 0.0741036 11.7094C-0.0158823 12.0124 -0.027896 15.9122 0.0600799 16.2616C0.135481 16.5611 0.463918 16.8895 0.76342 16.9649C0.913942 17.0028 1.61672 17.0198 3.03247 17.0198C5.31007 17.0198 5.4181 17.0081 5.70512 16.7288C6.03884 16.4042 6.03323 16.4502 6.03435 14.0335C6.0351 12.4507 6.01986 11.8133 5.97788 11.6728C5.9037 11.4245 5.6005 11.1213 5.35214 11.0471C5.21167 11.0051 4.57429 10.9899 2.99147 10.9906C0.992335 10.9916 0.808623 10.9983 0.636224 11.0771ZM4.02531 13.9813V14.963H3.04364H2.06198V13.9813V12.9997H3.04364H4.02531V13.9813ZM8.58262 13.0865C8.23861 13.2434 7.99969 13.617 7.99899 13.9993C7.9982 14.4035 8.31238 14.8418 8.68195 14.9523C8.82925 14.9963 10.0844 15.0095 14.0344 15.0087C18.9309 15.0078 19.2039 15.0034 19.3814 14.9223C19.6577 14.7961 19.8648 14.5586 19.9479 14.2728C20.0731 13.842 19.925 13.4272 19.5523 13.1653L19.3499 13.0231L14.06 13.0121C9.0224 13.0016 8.76109 13.0052 8.58262 13.0865Z" fill="#232632"/>
</svg>
