<svg width="20" height="20" viewBox="0 0 20 20" fill="none" xmlns="http://www.w3.org/2000/svg">
<path d="M8 10C8 11.2723 9.03538 12.3077 10.3077 12.3077C11.58 12.3077 12.6154 11.2723 12.6154 10C12.6154 8.72769 11.58 7.69231 10.3077 7.69231C9.03538 7.69231 8 8.72769 8 10Z" fill="black"/>
<path d="M8 17.6923C8 18.9646 9.03538 20 10.3077 20C11.58 20 12.6154 18.9646 12.6154 17.6923C12.6154 16.42 11.58 15.3846 10.3077 15.3846C9.03538 15.3846 8 16.42 8 17.6923Z" fill="black"/>
<path d="M8 2.30769C8 3.58 9.03538 4.61538 10.3077 4.61538C11.58 4.61538 12.6154 3.58 12.6154 2.30769C12.6154 1.03538 11.58 0 10.3077 0C9.03538 0 8 1.03538 8 2.30769Z" fill="black"/>
</svg>
