<svg width="20" height="20" viewBox="0 0 20 20" fill="none" xmlns="http://www.w3.org/2000/svg">
<path d="M16 6C17.1 6 18 5.1 18 4C18 2.9 17.1 2 16 2C14.9 2 14 2.9 14 4C14 5.1 14.9 6 16 6Z" fill="#232632"/>
<path d="M16 14C17.1 14 18 13.1 18 12C18 10.9 17.1 10 16 10C14.9 10 14 10.9 14 12C14 13.1 14.9 14 16 14Z" fill="#232632"/>
<path d="M4 6C2.9 6 2 6.9 2 8C2 9.1 2.9 10 4 10C5.1 10 6 9.1 6 8C6 6.9 5.1 6 4 6Z" fill="#232632"/>
<path d="M8 2C6.9 2 6 2.9 6 4C6 5.1 6.9 6 8 6C9.1 6 10 5.1 10 4C10 2.9 9.1 2 8 2Z" fill="#232632"/>
<path d="M12 14C10.9 14 10 14.9 10 16C10 17.1 10.9 18 12 18C13.1 18 14 17.1 14 16C14 14.9 13.1 14 12 14Z" fill="#232632"/>
<path d="M4 18C5.1 18 6 17.1 6 16C6 14.9 5.1 14 4 14C2.9 14 2 14.9 2 16C2 17.1 2.9 18 4 18Z" fill="#232632"/>
<path d="M12 6C10.9 6 10 6.9 10 8C10 9.1 10.9 10 12 10C13.1 10 14 9.1 14 8C14 6.9 13.1 6 12 6Z" fill="#232632"/>
<path d="M10 12C10 13.1 9.1 14 8 14C6.9 14 6 13.1 6 12C6 10.9 6.9 10 8 10C9.1 10 10 10.9 10 12Z" fill="#232632"/>
</svg>
