<svg width="20" height="20" viewBox="0 0 20 20" fill="none" xmlns="http://www.w3.org/2000/svg">
<path fill-rule="evenodd" clip-rule="evenodd" d="M16.35 2.38333V8.09444H10.6334C9.96114 8.09444 9.31114 8.36111 8.83892 8.83889C8.3667 9.31667 8.09448 9.96111 8.09448 10.6333V18.8889H2.38337C2.04448 18.8889 1.72225 18.7556 1.48892 18.5167C1.25003 18.2833 1.1167 17.9556 1.1167 17.6222V4.81111C1.1167 4.47222 1.25003 4.15 1.48892 3.91111C2.10003 3.3 3.30559 2.09444 3.9167 1.48333C4.15559 1.24444 4.48337 1.11111 4.8167 1.11111H15.0778C15.7778 1.11111 16.35 1.67778 16.35 2.38333Z" fill="#7B61FF"/>
<path fill-rule="evenodd" clip-rule="evenodd" d="M10.6334 9.36667C10.2945 9.36667 9.97226 9.5 9.73892 9.73889C9.50003 9.97222 9.3667 10.3 9.3667 10.6333V18.8889H17.6223C17.9611 18.8889 18.2834 18.7556 18.5167 18.5167C18.7556 18.2833 18.8889 17.9556 18.8889 17.6222V9.36667H10.6334ZM16.2223 15.4833L14.5223 16.8444C14.4056 16.9389 14.2667 16.9833 14.1278 16.9833C13.9889 16.9833 13.8445 16.9389 13.7334 16.8444L12.0334 15.4833C11.7611 15.2667 11.7167 14.8667 11.9334 14.5889C12.15 14.3167 12.55 14.2722 12.8278 14.4889L13.5 15.0222V11.9C13.5 11.55 13.7834 11.2667 14.1334 11.2667C14.4834 11.2667 14.7667 11.55 14.7667 11.9V15.0222L15.4389 14.4889C15.7111 14.2722 16.1111 14.3167 16.3334 14.5889C16.5556 14.8611 16.5056 15.2611 16.2334 15.4833H16.2223Z" fill="#232632"/>
</svg>
