<svg width="20" height="20" viewBox="0 0 20 20" fill="none" xmlns="http://www.w3.org/2000/svg">
<path d="M9.58549 12.2154L5.54608 10.8656L9.58549 8.84585L13.6249 10.8656L9.58549 12.2154ZM9.58549 13.7551C9.50373 13.7565 9.42241 13.743 9.34552 13.7151L5.16514 12.3213C5.10521 12.3012 5.04045 12.3005 4.9801 12.3193C4.91974 12.3381 4.86689 12.3756 4.82908 12.4262C4.79126 12.4769 4.77043 12.5382 4.76955 12.6015C4.76868 12.6647 4.7878 12.7266 4.82419 12.7783L8.91559 18.6444C8.99028 18.7531 9.0903 18.842 9.20701 18.9034C9.32372 18.9648 9.45361 18.9968 9.58549 18.9968C9.71736 18.9968 9.84726 18.9648 9.96397 18.9034C10.0807 18.842 10.1807 18.7531 10.2554 18.6444L14.3468 12.7783C14.3832 12.7266 14.4023 12.6647 14.4014 12.6015C14.4005 12.5382 14.3797 12.4769 14.3419 12.4262C14.3041 12.3756 14.2512 12.3381 14.1909 12.3193C14.1305 12.3005 14.0658 12.3012 14.0058 12.3213L9.82545 13.7151C9.74856 13.743 9.66724 13.7565 9.58549 13.7551ZM9.92544 7.33607L14.0848 9.41476C14.1421 9.44456 14.2075 9.45506 14.2713 9.4447C14.335 9.43435 14.3937 9.4037 14.4387 9.35731C14.4836 9.31092 14.5123 9.25126 14.5207 9.18721C14.529 9.12316 14.5164 9.05814 14.4848 9.00182L10.3054 1.41693C10.2333 1.28944 10.1287 1.18336 10.0022 1.10955C9.87575 1.03574 9.73193 0.996849 9.58549 0.996849C9.43904 0.996849 9.29522 1.03574 9.16874 1.10955C9.04225 1.18336 8.93764 1.28944 8.86559 1.41693L4.68621 9.00182C4.6546 9.05814 4.64201 9.12316 4.65032 9.18721C4.65863 9.25126 4.68739 9.31092 4.73232 9.35731C4.77725 9.4037 4.83596 9.43435 4.89971 9.4447C4.96346 9.45506 5.02884 9.44456 5.08615 9.41476L9.24554 7.33607C9.35206 7.28666 9.46807 7.26106 9.58549 7.26106C9.70291 7.26106 9.81892 7.28666 9.92544 7.33607Z" fill="#232632"/>
</svg>
