<svg width="20" height="20" viewBox="0 0 20 20" fill="none" xmlns="http://www.w3.org/2000/svg">
<path fill-rule="evenodd" clip-rule="evenodd" d="M19.7975 9.45131L20 9.70703L19.7975 9.96275C19.6188 10.1851 15.3837 16 10 16C4.6175 16 0.38125 10.1851 0.2025 9.96275L0 9.70703L0.2025 9.45131C0.38125 9.22894 4.6175 4 10 4C15.385 4 19.6188 9.22894 19.7975 9.45131ZM1.95297 9.73918C4.71371 12.9198 7.39605 14.5101 10 14.5101C12.604 14.5101 15.2878 12.9198 18.0516 9.73918C15.3166 6.91675 12.6328 5.50553 10 5.50553C7.36723 5.50553 4.68489 6.91675 1.95297 9.73918ZM10 13C8.34315 13 7 11.6569 7 10C7 8.34315 8.34315 7 10 7C11.6569 7 13 8.34315 13 10C13 11.6569 11.6569 13 10 13ZM10 11.5C10.8284 11.5 11.5 10.8284 11.5 10C11.5 9.17157 10.8284 8.5 10 8.5C9.17157 8.5 8.5 9.17157 8.5 10C8.5 10.8284 9.17157 11.5 10 11.5Z" fill="#232632"/>
</svg>
