<svg width="20" height="20" viewBox="0 0 20 20" fill="none" xmlns="http://www.w3.org/2000/svg">
<path fill-rule="evenodd" clip-rule="evenodd" d="M14.5396 5.22631L14.5448 5.22896L17.151 3L18.1272 4.13891L15.9169 6.02924L14.7343 7.04158L12.7137 8.7687L12.7144 8.7702L11.4832 9.82391L11.4828 9.82142L9.54467 11.479L9.54802 11.48L8.31727 12.5333L8.31425 12.5313L6.83616 13.7954L6.84028 13.7973L5.62885 14.8341L5.62443 14.8317L2.92581 17.1396L1.94965 16.0007L4.29136 13.998L5.4565 12.9997L5.45772 13.0005L7.32313 11.4052L7.32209 11.4031L8.53356 10.3663L8.53422 10.3694L10.5436 8.65088L10.5398 8.64938L11.7508 7.61295L11.7543 7.61546L13.3088 6.28602L13.3038 6.28385L14.5396 5.22631ZM13.5501 4.77558L12.2444 5.893C11.4922 5.66758 10.744 5.55486 10 5.55486C7.36723 5.55486 4.68489 6.96608 1.95297 9.78852C2.85691 10.8299 3.75244 11.7009 4.63957 12.4013L3.48452 13.3898C1.5368 11.8257 0.297432 10.1302 0.2025 10.0121L0 9.75637L0.2025 9.50065C0.38125 9.27828 4.6175 4.04934 10 4.04934C11.2586 4.04934 12.4543 4.33498 13.5501 4.77558ZM7.01662 10.367C7.00563 10.2626 7 10.1566 7 10.0493C7 8.39248 8.34315 7.04934 10 7.04934C10.268 7.04934 10.5279 7.08449 10.7751 7.15043L7.01662 10.367ZM16.7493 6.61468C18.5622 7.9738 19.7064 9.38733 19.7975 9.50065L20 9.75637L19.7975 10.0121C19.6187 10.2345 15.3837 16.0493 10 16.0493C8.79679 16.0493 7.65086 15.7588 6.59473 15.305L7.87272 14.2113C8.58753 14.4434 9.29663 14.5594 10 14.5594C12.604 14.5594 15.2878 12.9691 18.0516 9.78852C17.2238 8.93422 16.4006 8.20922 15.5822 7.6135L16.7493 6.61468ZM12.9921 9.8301C12.9973 9.90249 13 9.9756 13 10.0493C13 11.7062 11.6569 13.0493 10 13.0493C9.76637 13.0493 9.53899 13.0226 9.32072 12.9721L12.9921 9.8301Z" fill="#232632"/>
</svg>
