<svg width="20" height="20" viewBox="0 0 20 20" fill="none" xmlns="http://www.w3.org/2000/svg">
<path fill-rule="evenodd" clip-rule="evenodd" d="M15.4 10.2C17.3882 10.2 19 8.58819 19 6.6C19 4.61177 17.3882 3 15.4 3C13.7226 3 12.3131 4.14729 11.9134 5.7H1.9C1.40295 5.7 1 6.10295 1 6.6C1 7.09706 1.40295 7.5 1.9 7.5H11.9134C12.3131 9.05268 13.7226 10.2 15.4 10.2ZM13.6 6.6C13.6 7.59411 14.4059 8.4 15.4 8.4C16.3941 8.4 17.2 7.59411 17.2 6.6C17.2 5.60589 16.3941 4.8 15.4 4.8C14.4059 4.8 13.6 5.60589 13.6 6.6ZM1 13.8C1 11.8118 2.61177 10.2 4.6 10.2C6.27746 10.2 7.68695 11.3473 8.08658 12.9H18.1C18.5971 12.9 19 13.3029 19 13.8C19 14.2971 18.5971 14.7 18.1 14.7H8.08658C7.68695 16.2527 6.27746 17.4 4.6 17.4C2.61177 17.4 1 15.7882 1 13.8ZM6.4 13.8C6.4 12.8059 5.59411 12 4.6 12C3.60589 12 2.8 12.8059 2.8 13.8C2.8 14.7941 3.60589 15.6 4.6 15.6C5.59411 15.6 6.4 14.7941 6.4 13.8Z" fill="#232632"/>
</svg>
