<svg width="21" height="20" viewBox="0 0 21 20" fill="none" xmlns="http://www.w3.org/2000/svg">
<path d="M10.0041 14.9605C9.57918 14.9605 9.2343 14.6156 9.2343 14.1906V8.11108C9.2343 7.68615 9.57918 7.34128 10.0041 7.34128C10.429 7.34128 10.7739 7.68615 10.7739 8.11108V14.1906C10.7739 14.616 10.4294 14.9605 10.0041 14.9605Z" fill="#232632"/>
<path d="M10.0041 6.57185C9.80011 6.57185 9.60381 6.49102 9.4614 6.34476C9.31513 6.20234 9.2343 6.00604 9.2343 5.80204C9.2343 5.59805 9.31513 5.40174 9.4614 5.25933C9.74622 4.97065 10.262 4.97065 10.5468 5.25548C10.6931 5.40174 10.7739 5.59805 10.7739 5.80204C10.7739 6.00219 10.6931 6.20234 10.5468 6.34476C10.4044 6.49102 10.2081 6.57185 10.0041 6.57185Z" fill="#232632"/>
<path d="M9.97832 20C9.10266 20 8.23471 19.8861 7.39831 19.6609C3.79407 18.6913 0.971952 15.7056 0.208687 12.054C-0.569204 8.33394 0.866488 4.42332 3.86682 2.09118C5.60119 0.742865 7.7886 0 10.0264 0C11.5757 0 13.1141 0.36027 14.4759 1.04117C17.8388 2.72358 20.0116 6.23853 20.0116 9.99634C20.0116 13.0625 18.5648 16.0178 16.1414 17.9015C14.4009 19.2548 12.2119 20 9.97832 20ZM10.0268 1.53962C8.12963 1.53962 6.27747 2.16701 4.81214 3.30671C2.27293 5.2805 1.0574 8.59029 1.71597 11.7388C2.36184 14.8277 4.7494 17.3538 7.79861 18.174C8.50452 18.3638 9.23815 18.4604 9.97832 18.4604H9.97871C11.8717 18.4604 13.7246 17.8303 15.1969 16.686C17.248 15.0917 18.4724 12.591 18.4724 9.99634C18.4724 6.81665 16.6337 3.84211 13.7877 2.41835C12.6384 1.84369 11.3382 1.53962 10.0268 1.53962Z" fill="#232632"/>
</svg>
