<svg width="20" height="20" viewBox="0 0 20 20" fill="none" xmlns="http://www.w3.org/2000/svg">
<path d="M19 10C19 5.02944 14.9706 1 10 1V2.5C14.1421 2.5 17.5 5.85786 17.5 10H19Z" fill="#232632"/>
<path fill-rule="evenodd" clip-rule="evenodd" d="M1.013 5.36854C0.94033 6.34347 1.18127 7.26106 1.51401 8.15953C2.20242 10.0176 3.25033 11.6616 4.52006 13.1757C6.23726 15.2173 8.28719 16.8345 10.689 18.0006C11.7713 18.5244 12.8919 18.9297 14.1081 18.9947C14.9418 19.0406 15.624 18.7758 16.2575 18.1765C16.5335 17.9153 16.8168 17.6238 17.1007 17.3317C17.243 17.1853 17.3855 17.0386 17.5272 16.8957C18.1544 16.2649 18.1582 15.4964 17.5348 14.8694C16.7929 14.12 16.0471 13.3745 15.2975 12.6328C14.6856 12.0249 13.9207 12.0287 13.3088 12.6328C13.1231 12.8169 12.9756 12.9585 12.8366 13.092C12.6263 13.294 12.4355 13.4772 12.1615 13.7603C12.0353 13.8903 11.9712 13.9056 11.7752 13.833C11.5793 13.7603 11.1557 13.5348 10.865 13.3551C9.51496 12.5101 8.38291 11.4167 7.38089 10.1856C6.8837 9.57385 6.44006 8.92007 6.1341 8.18601C6.06909 8.0369 6.08056 7.93749 6.20294 7.81897C6.35858 7.66849 6.48612 7.54654 6.60402 7.4338C6.83957 7.20857 7.0367 7.02007 7.34254 6.71433C7.98123 6.07202 7.97741 5.31884 7.33872 4.6727C7.09642 4.42794 6.85243 4.18487 6.609 3.94237L6.60707 3.94044C6.48611 3.81995 6.3653 3.6996 6.24491 3.57925C5.87014 3.20077 5.49528 2.82221 5.11668 2.45138C4.50476 1.85113 3.73604 1.8473 3.12412 2.45138C3.12412 2.45138 2.19258 3.33883 1.72435 3.83541C1.25612 4.33198 1.05889 4.76828 1.013 5.36854ZM4.35783 3.81212C4.22711 3.68395 4.21285 3.66997 4.12187 3.66997C4.02895 3.66997 3.98178 3.71387 3.89592 3.79376C3.88209 3.80664 3.86724 3.82045 3.85104 3.83516C3.73433 3.94116 2.82828 4.84921 2.82828 4.84921C2.82828 4.84921 2.59784 5.08319 2.52617 5.30965C2.45449 5.53612 2.49914 6.08074 2.56112 6.39119C3.06662 8.92322 4.86644 11.418 6.463 13.1039C8.08503 14.8166 10.3958 16.5031 13.1454 17.352C13.4942 17.4597 14.4073 17.549 14.6879 17.4425C14.9685 17.3359 15.2398 17.0807 15.2398 17.0807L16.0306 16.2745C16.0306 16.2745 16.2805 16.0491 16.2805 15.911C16.2805 15.7728 16.2111 15.6834 16.1171 15.589C15.2232 14.6909 14.7306 14.194 14.6393 14.0985L14.623 14.0814C14.483 13.9346 14.4164 13.8649 14.297 13.8649C14.182 13.8649 14.0679 13.985 13.9951 14.0618L13.9788 14.0789C13.0309 15.0671 12.7061 15.3255 12.126 15.3715C11.1773 15.4468 9.33497 14.4202 7.38456 12.4421C5.43416 10.4641 4.49411 8.56528 4.59517 7.86331C4.69044 7.20157 5.05326 6.84875 5.15403 6.75075L5.16939 6.73569C5.24042 6.66438 6.00237 5.93526 6.00237 5.93526C6.00237 5.93526 6.16791 5.7866 6.16791 5.70064C6.16791 5.62067 6.13229 5.58514 6.08273 5.53573L6.07138 5.52438C5.12149 4.5689 4.57905 4.02614 4.44406 3.89609C4.41053 3.86379 4.38211 3.83592 4.35783 3.81212Z" fill="#232632"/>
<path d="M10 4C13.3137 4 16 6.68629 16 10H14.5C14.5 7.51472 12.4853 5.5 10 5.5V4Z" fill="#232632"/>
</svg>
