<svg width="20" height="20" viewBox="0 0 20 20" fill="none" xmlns="http://www.w3.org/2000/svg">
<path fill-rule="evenodd" clip-rule="evenodd" d="M1 2H19V18H1V2ZM2.5 12.5732V16.5H17.5V14.8167L12.5749 10.4683L11.4637 11.5739L12.4699 12.5016L11.4398 13.601L6.56024 9.0217L2.5 12.5732ZM2.5 3.5V10.5609L6.56024 7.01621L10.3652 10.5609L12.5072 8.41433L17.5 12.8169V3.5H2.5ZM14.5 8C13.6716 8 13 7.32843 13 6.5C13 5.67157 13.6716 5 14.5 5C15.3284 5 16 5.67157 16 6.5C16 7.32843 15.3284 8 14.5 8Z" fill="#232632"/>
</svg>
