<svg width="20" height="20" viewBox="0 0 20 20" fill="none" xmlns="http://www.w3.org/2000/svg">
<path fill-rule="evenodd" clip-rule="evenodd" d="M10 19C5.33333 14.244 3 10.5773 3 8C3 4.13401 6.13401 1 10 1C13.866 1 17 4.13401 17 8C17 10.5773 14.6667 14.244 10 19ZM10 16.9C13.6667 12.9917 15.5 10.025 15.5 8C15.5 4.96243 13.0376 2.5 10 2.5C6.96243 2.5 4.5 4.96243 4.5 8C4.5 10.025 6.33333 12.9917 10 16.9ZM10 11C8.34315 11 7 9.65685 7 8C7 6.34315 8.34315 5 10 5C11.6569 5 13 6.34315 13 8C13 9.65685 11.6569 11 10 11ZM10 9.5C10.8284 9.5 11.5 8.82843 11.5 8C11.5 7.17157 10.8284 6.5 10 6.5C9.17157 6.5 8.5 7.17157 8.5 8C8.5 8.82843 9.17157 9.5 10 9.5Z" fill="#232632"/>
</svg>
