<svg width="20" height="20" viewBox="0 0 20 20" fill="none" xmlns="http://www.w3.org/2000/svg">
<path d="M18.0668 9.06822H18.066C17.9437 9.06832 17.8227 9.0925 17.7097 9.13938C17.5968 9.18626 17.4943 9.25493 17.4079 9.34145C17.3215 9.42797 17.253 9.53066 17.2063 9.64365C17.1597 9.75664 17.1357 9.87772 17.1358 9.99998C17.1346 11.3051 16.7757 12.585 16.0981 13.7005C15.4205 14.8159 14.45 15.7243 13.2923 16.3269C12.1346 16.9294 10.8338 17.2031 9.53142 17.1182C8.22903 17.0332 6.97484 16.5929 5.90517 15.8451C2.68176 13.588 1.89554 9.12923 4.15262 5.90579C6.40971 2.68234 10.8685 1.89604 14.0919 4.1532C14.5796 4.49377 15.0228 4.89395 15.4112 5.34442H12.7914C12.5445 5.34442 12.3077 5.44251 12.1331 5.61709C11.9585 5.79168 11.8604 6.02847 11.8604 6.27537C11.8604 6.52228 11.9585 6.75907 12.1331 6.93365C12.3077 7.10824 12.5445 7.20632 12.7914 7.20632H17.1358C17.3827 7.20632 17.6195 7.10824 17.7941 6.93365C17.9687 6.75907 18.0668 6.52228 18.0668 6.27537V1.93095C18.0668 1.68405 17.9687 1.44726 17.7941 1.27267C17.6195 1.09808 17.3827 1 17.1358 1C16.8889 1 16.6521 1.09808 16.4775 1.27267C16.303 1.44726 16.2049 1.68405 16.2049 1.93095V3.48125C15.8782 3.17128 15.5289 2.88604 15.1599 2.62788C14.1919 1.95009 13.0999 1.46959 11.9462 1.21383C10.7925 0.958067 9.5997 0.932046 8.43595 1.13725C7.2722 1.34246 6.16026 1.77487 5.16363 2.40981C4.16699 3.04474 3.30517 3.86976 2.62738 4.83776C1.25852 6.79272 0.722321 9.21139 1.13675 11.5617C1.55119 13.912 2.8823 16.0014 4.83726 17.3703C6.34242 18.4304 8.13841 18.9997 9.97947 19C10.5097 18.9997 11.039 18.9532 11.5611 18.8609C13.6447 18.4934 15.5321 17.4036 16.8921 15.7828C18.252 14.1621 18.9976 12.1141 18.9977 9.99835C18.9975 9.7516 18.8993 9.51502 18.7248 9.34061C18.5502 9.1662 18.3136 9.06823 18.0668 9.06822Z" fill="#232632"/>
</svg>
