<svg width="25" height="24" viewBox="0 0 25 24" fill="none" xmlns="http://www.w3.org/2000/svg">
<path fill-rule="evenodd" clip-rule="evenodd" d="M22.2479 20.3143L20.9621 21.6L15.683 16.321C14.3539 17.3724 12.6742 18 10.8479 18C6.54003 18 3.04785 14.5078 3.04785 10.2C3.04785 5.8922 6.54003 2.40002 10.8479 2.40002C15.1557 2.40002 18.6479 5.8922 18.6479 10.2C18.6479 12.0263 18.0202 13.7061 16.9688 15.0352L22.2479 20.3143ZM10.8662 16.2183C14.1799 16.2183 16.8662 13.532 16.8662 10.2183C16.8662 6.90463 14.1799 4.21834 10.8662 4.21834C7.55246 4.21834 4.86617 6.90463 4.86617 10.2183C4.86617 13.532 7.55246 16.2183 10.8662 16.2183Z" fill="#191B23"/>
</svg>
