<svg width="20" height="20" viewBox="0 0 20 20" fill="none" xmlns="http://www.w3.org/2000/svg">
<path fill-rule="evenodd" clip-rule="evenodd" d="M6.2787 12.2568C5.82545 12.7156 5.19593 13 4.5 13C3.11929 13 2 11.8807 2 10.5C2 9.11929 3.11929 8 4.5 8C5.21256 8 5.85549 8.29811 6.31088 8.77641L13.0675 5.07966C13.0234 4.89362 13 4.69954 13 4.5C13 3.11929 14.1193 2 15.5 2C16.8807 2 18 3.11929 18 4.5C18 5.88071 16.8807 7 15.5 7C14.8112 7 14.1874 6.72141 13.7352 6.27076L6.94687 9.98485C6.98169 10.1511 7 10.3234 7 10.5C7 10.6455 6.98757 10.7881 6.96372 10.9267L12.7205 13.744C13.1738 13.2847 13.8037 13 14.5 13C15.8807 13 17 14.1193 17 15.5C17 16.8807 15.8807 18 14.5 18C13.1193 18 12 16.8807 12 15.5C12 15.3549 12.0124 15.2127 12.0361 15.0743L6.2787 12.2568ZM15.5 5.5C16.0523 5.5 16.5 5.05228 16.5 4.5C16.5 3.94772 16.0523 3.5 15.5 3.5C14.9477 3.5 14.5 3.94772 14.5 4.5C14.5 5.05228 14.9477 5.5 15.5 5.5ZM4.5 11.5C5.05228 11.5 5.5 11.0523 5.5 10.5C5.5 9.94772 5.05228 9.5 4.5 9.5C3.94772 9.5 3.5 9.94772 3.5 10.5C3.5 11.0523 3.94772 11.5 4.5 11.5ZM14.5 16.5C15.0523 16.5 15.5 16.0523 15.5 15.5C15.5 14.9477 15.0523 14.5 14.5 14.5C13.9477 14.5 13.5 14.9477 13.5 15.5C13.5 16.0523 13.9477 16.5 14.5 16.5Z" fill="#232632"/>
</svg>
