<svg width="20" height="20" viewBox="0 0 20 20" fill="none" xmlns="http://www.w3.org/2000/svg">
<path fill-rule="evenodd" clip-rule="evenodd" d="M10 9C8.9 9 8 9.9 8 11C8 12.1 8.9 13 10 13C11.1 13 12 12.1 12 11C12 9.9 11.1 9 10 9Z" fill="#232632"/>
<path fill-rule="evenodd" clip-rule="evenodd" d="M16 11C16 7.69 13.31 5 10 5C6.69 5 4 7.69 4 11C4 13.22 5.21 15.15 7 16.19L8 14.45C6.81 13.75 6 12.48 6 11C6 8.79 7.79 7 10 7C12.21 7 14 8.79 14 11C14 12.48 13.19 13.75 12 14.45L13 16.19C14.79 15.15 16 13.22 16 11ZM10 1C4.48 1 0 5.48 0 11C0 14.7 2.01 17.92 4.99 19.65L5.99 17.92C3.61 16.53 2 13.96 2 11C2 6.58 5.58 3 10 3C14.42 3 18 6.58 18 11C18 13.96 16.39 16.53 14 17.92L15 19.65C17.99 17.92 20 14.7 20 11C20 5.48 15.52 1 10 1Z" fill="#232632"/>
</svg>
