<svg width="21" height="20" viewBox="0 0 21 20" fill="none" xmlns="http://www.w3.org/2000/svg">
<path d="M14.2585 20H6.76585C6.01621 19.9892 5.29829 19.6957 4.75565 19.1784C4.21301 18.6611 3.88565 17.958 3.83902 17.2098L2.95122 3.70732C2.94667 3.60942 2.96157 3.51159 2.99506 3.41949C3.02855 3.32739 3.07997 3.24284 3.14634 3.17073C3.21472 3.096 3.2975 3.03587 3.38971 2.99396C3.48193 2.95204 3.58166 2.92921 3.68293 2.92683H17.3415C17.4418 2.92661 17.5411 2.94702 17.6332 2.9868C17.7253 3.02659 17.8083 3.08489 17.8769 3.15809C17.9455 3.23129 17.9984 3.31782 18.0321 3.4123C18.0659 3.50679 18.0799 3.6072 18.0732 3.70732L17.2244 17.2098C17.1773 17.9647 16.8444 18.6733 16.2935 19.1917C15.7426 19.71 15.0149 19.999 14.2585 20ZM4.50244 4.39024L5.25366 17.122C5.27848 17.5059 5.44869 17.8659 5.72964 18.1287C6.01058 18.3915 6.38114 18.5374 6.76585 18.5366H14.2585C14.6426 18.5351 15.0118 18.3884 15.2923 18.1261C15.5728 17.8637 15.7437 17.505 15.7707 17.122L16.561 4.43902L4.50244 4.39024Z" fill="black"/>
<path d="M19.2927 4.39024H1.73171C1.53765 4.39024 1.35153 4.31315 1.21431 4.17593C1.07709 4.03871 1 3.8526 1 3.65854C1 3.46448 1.07709 3.27836 1.21431 3.14114C1.35153 3.00392 1.53765 2.92683 1.73171 2.92683H19.2927C19.4867 2.92683 19.6729 3.00392 19.8101 3.14114C19.9473 3.27836 20.0244 3.46448 20.0244 3.65854C20.0244 3.8526 19.9473 4.03871 19.8101 4.17593C19.6729 4.31315 19.4867 4.39024 19.2927 4.39024Z" fill="black"/>
<path d="M13.439 4.39024H7.58537C7.39209 4.38772 7.20744 4.30982 7.07077 4.17314C6.93409 4.03646 6.85618 3.85181 6.85366 3.65854V1.90244C6.86603 1.40177 7.07043 0.925035 7.42456 0.570904C7.77869 0.216773 8.25543 0.0123677 8.7561 0H12.2683C12.7773 0.0127288 13.2611 0.223909 13.6166 0.588463C13.972 0.953017 14.1709 1.44207 14.1707 1.95122V3.65854C14.1682 3.85181 14.0903 4.03646 13.9536 4.17314C13.8169 4.30982 13.6323 4.38772 13.439 4.39024ZM8.31707 2.92683H12.7073V1.95122C12.7073 1.83478 12.6611 1.72312 12.5787 1.64078C12.4964 1.55845 12.3847 1.51219 12.2683 1.51219H8.7561C8.63966 1.51219 8.52799 1.55845 8.44566 1.64078C8.36333 1.72312 8.31707 1.83478 8.31707 1.95122V2.92683Z" fill="black"/>
<path d="M13.439 16.0976C13.2457 16.095 13.0611 16.0171 12.9244 15.8805C12.7877 15.7438 12.7098 15.5591 12.7073 15.3659V7.56098C12.7073 7.36691 12.7844 7.1808 12.9216 7.04358C13.0589 6.90636 13.245 6.82927 13.439 6.82927C13.6331 6.82927 13.8192 6.90636 13.9564 7.04358C14.0936 7.1808 14.1707 7.36691 14.1707 7.56098V15.3659C14.1682 15.5591 14.0903 15.7438 13.9536 15.8805C13.8169 16.0171 13.6323 16.095 13.439 16.0976Z" fill="black"/>
<path d="M7.58537 16.0976C7.39209 16.095 7.20744 16.0171 7.07077 15.8805C6.93409 15.7438 6.85618 15.5591 6.85366 15.3659V7.56098C6.85366 7.36691 6.93075 7.1808 7.06797 7.04358C7.20519 6.90636 7.39131 6.82927 7.58537 6.82927C7.77943 6.82927 7.96554 6.90636 8.10276 7.04358C8.23998 7.1808 8.31707 7.36691 8.31707 7.56098V15.3659C8.31455 15.5591 8.23664 15.7438 8.09997 15.8805C7.96329 16.0171 7.77864 16.095 7.58537 16.0976Z" fill="black"/>
<path d="M10.5122 16.0976C10.3189 16.095 10.1343 16.0171 9.99759 15.8805C9.86092 15.7438 9.78301 15.5591 9.78049 15.3659V7.56098C9.78049 7.36691 9.85758 7.1808 9.9948 7.04358C10.132 6.90636 10.3181 6.82927 10.5122 6.82927C10.7063 6.82927 10.8924 6.90636 11.0296 7.04358C11.1668 7.1808 11.2439 7.36691 11.2439 7.56098V15.3659C11.2414 15.5591 11.1635 15.7438 11.0268 15.8805C10.8901 16.0171 10.7055 16.095 10.5122 16.0976Z" fill="black"/>
</svg>
