<svg width="20" height="20" viewBox="0 0 20 20" fill="none" xmlns="http://www.w3.org/2000/svg">
<path fill-rule="evenodd" clip-rule="evenodd" d="M2.76962 12H6.58673C6.52997 11.3568 6.5 10.6874 6.5 10C6.5 9.31261 6.52997 8.64322 6.58673 8H2.76962C2.59388 8.63672 2.5 9.30739 2.5 10C2.5 10.6926 2.59388 11.3633 2.76962 12ZM3.36505 13.5C4.30417 15.2766 5.93596 16.6306 7.90084 17.2023C7.40874 16.2524 7.01717 14.9768 6.77452 13.5H3.36505ZM17.2304 12C17.4061 11.3633 17.5 10.6926 17.5 10C17.5 9.30739 17.4061 8.63672 17.2304 8H13.4133C13.47 8.64322 13.5 9.31261 13.5 10C13.5 10.6874 13.47 11.3568 13.4133 12H17.2304ZM16.635 13.5H13.2255C12.9828 14.9768 12.5913 16.2524 12.0992 17.2023C14.064 16.6306 15.6958 15.2766 16.635 13.5ZM8.07041 12H11.9296C11.9765 11.379 12 10.7123 12 10C12 9.2877 11.9765 8.62103 11.9296 8H8.07041C8.02347 8.62103 8 9.2877 8 10C8 10.7123 8.02347 11.379 8.07041 12ZM8.24343 13.5C8.54632 15.3829 9.13184 16.7162 10 17.5C10.8682 16.7162 11.4537 15.3829 11.7566 13.5H8.24343ZM3.36505 6.5H6.77452C7.01717 5.02317 7.40874 3.7476 7.90084 2.79773C5.93596 3.36943 4.30417 4.72339 3.36505 6.5ZM16.635 6.5C15.6958 4.72339 14.064 3.36943 12.0992 2.79773C12.5913 3.7476 12.9828 5.02317 13.2255 6.5H16.635ZM8.24343 6.5H11.7566C11.4537 4.6171 10.8682 3.28377 10 2.5C9.13184 3.28377 8.54632 4.6171 8.24343 6.5ZM10 19C5.02944 19 1 14.9706 1 10C1 5.02944 5.02944 1 10 1C14.9706 1 19 5.02944 19 10C19 14.9706 14.9706 19 10 19Z" fill="#232632"/>
</svg>
