<svg width="20" height="20" viewBox="0 0 20 20" fill="none" xmlns="http://www.w3.org/2000/svg">
<path fill-rule="evenodd" clip-rule="evenodd" d="M13.7812 0C13.8659 1.10307 13.5161 2.19562 12.8061 3.04564C12.1173 3.90007 11.0736 4.39222 9.97431 4.38093C9.9044 3.30962 10.2644 2.25452 10.9749 1.44805C11.6945 0.630641 12.6965 0.11362 13.7812 0ZM17.2577 6.4814C15.9932 7.25669 15.2151 8.62395 15.196 10.1042C15.1978 11.7788 16.2034 13.2902 17.75 13.9425C17.4526 14.9062 17.0042 15.8168 16.4216 16.6408C15.6391 17.8082 14.8186 18.9486 13.5165 18.9697C12.8972 18.9839 12.4791 18.8063 12.0435 18.6213C11.5892 18.4282 11.1157 18.2271 10.3748 18.2271C9.58898 18.2271 9.0943 18.4347 8.6172 18.635C8.2049 18.808 7.80573 18.9755 7.24318 18.9988C6.00307 19.0446 5.05532 17.7529 4.24439 16.5965C2.62356 14.2349 1.36146 9.94121 3.05349 7.01964C3.84804 5.5957 5.33366 4.69213 6.96679 4.63951C7.67014 4.62508 8.34504 4.89543 8.93674 5.13246C9.38926 5.31373 9.79312 5.47551 10.1238 5.47551C10.4145 5.47551 10.8071 5.32012 11.2647 5.13902C11.9854 4.85375 12.8672 4.5047 13.7659 4.59877C15.1623 4.64234 16.4564 5.34004 17.2577 6.4814Z" fill="#232632"/>
</svg>
