<svg width="46" height="46" viewBox="0 0 46 46" fill="none" xmlns="http://www.w3.org/2000/svg">
<rect x="7" y="4" width="33" height="36" fill="url(#paint0_linear_3784_311)"/>
<path d="M9.73386 45C8.75341 45 7.77295 44.7463 6.87976 44.239C5.07542 43.2167 4 41.3776 4 39.3228V11.4975C4 6.25916 8.31194 2 13.6095 2H33.3905C38.6906 2 43 6.26169 43 11.4975V39.2619C43 41.3268 41.9169 43.1685 40.0997 44.1882C38.2851 45.208 36.1291 45.1877 34.3325 44.1324L23.645 37.8515L12.6265 44.2162C11.723 44.7387 10.7297 45 9.73386 45ZM13.6095 5.55141C10.2908 5.55141 7.59329 8.22005 7.59329 11.4975V39.3228C7.59329 40.4288 8.34531 40.9742 8.66871 41.1594C8.9921 41.342 9.84936 41.7099 10.8144 41.1518L22.7493 34.2595C23.0265 34.1 23.3419 34.0165 23.6627 34.0179C23.9836 34.0192 24.2982 34.1053 24.5741 34.2671L36.1702 41.0833C37.1378 41.6515 37.9976 41.2862 38.3236 41.1036C38.6496 40.9209 39.4067 40.3755 39.4067 39.2645V11.4975C39.4067 8.21751 36.7066 5.55141 33.3905 5.55141H13.6095Z" fill="#1A1A1A" stroke="#1A1A1A" stroke-width="0.5"/>
<path d="M37.2999 45C36.2981 45 35.2988 44.7349 34.3887 44.2047L22.8713 37.4851C22.6059 37.3298 22.3861 37.1097 22.2334 36.8461C22.0807 36.5826 22.0003 36.2847 22 35.9816C21.9997 35.6784 22.0797 35.3804 22.2319 35.1166C22.3842 34.8528 22.6036 34.6323 22.8687 34.4766L40.2978 24.2483C40.8485 23.9257 41.5342 23.9157 42.095 24.2283C42.6559 24.5409 43 25.1211 43 25.7513V39.4007C43 41.4364 41.9242 43.2519 40.1194 44.2573C39.2322 44.7524 38.2661 45 37.2999 45ZM27.2662 35.9746L36.214 41.1938C37.175 41.754 38.029 41.3938 38.3528 41.2138C38.6765 41.0337 39.4285 40.4961 39.4285 39.4007V28.8373L27.2662 35.9746Z" fill="#1A1A1A" stroke="#1A1A1A" stroke-width="0.5"/>
<rect x="15" y="14" width="16" height="5" rx="2.5" fill="#1A1A1A"/>
<defs>
<linearGradient id="paint0_linear_3784_311" x1="23.5" y1="4" x2="23.5" y2="40" gradientUnits="userSpaceOnUse">
<stop stop-color="#F1F1F1"/>
<stop offset="1" stop-color="#F1F1F1" stop-opacity="0"/>
</linearGradient>
</defs>
</svg>
