<svg width="46" height="46" viewBox="0 0 46 46" fill="none" xmlns="http://www.w3.org/2000/svg">
<path d="M24.7162 44H21.2838C12.1305 44 4.69353 36.4676 4.69353 27.3144V22.0704V21.7843L3.26334 21.5936L3.07264 21.403C1.64245 19.9728 1.64245 17.7798 3.07264 16.3496L3.16799 16.1589L20.4257 3.00114C21.8558 1.66629 23.9535 1.66629 25.3837 3.00114L42.9274 16.2543C44.3576 17.6844 44.3576 19.8774 42.9274 21.3076L42.7367 21.4983L41.3065 21.7843V27.3144C41.3065 36.4676 33.8695 44 24.7162 44Z" fill="#1A1A1A"/>
<path d="M24.7162 44H21.2838C12.1305 44 4.69353 36.4676 4.69353 27.3144V22.0704V21.7843L3.26334 21.5936L3.07264 21.403C1.64245 19.9728 1.64245 17.7798 3.07264 16.3496L3.16799 16.1589L20.4257 3.00114C21.8558 1.66629 23.9535 1.66629 25.3837 3.00114L42.9274 16.2543C44.3576 17.6844 44.3576 19.8774 42.9274 21.3076L42.7367 21.4983L41.3065 21.7843V27.3144C41.3065 36.4676 33.8695 44 24.7162 44ZM4.2168 19.7821L6.6958 20.1635V21.0216C6.6958 21.2123 6.6958 21.4983 6.60045 21.689V27.4098C6.60045 35.5142 13.1793 42.1884 21.2838 42.1884H24.7162C32.8207 42.1884 39.3995 35.5142 39.3995 27.4098V22.1657C39.3995 21.7843 39.3995 21.4983 39.3042 21.2123L39.0182 20.1635L41.6879 19.7821C42.1646 19.1146 42.0692 18.2565 41.4972 17.6844L24.1442 4.43133C23.4767 3.7639 22.4279 3.7639 21.7605 4.43133L21.6652 4.52667L4.40749 17.6844C3.83541 18.2565 3.74007 19.1146 4.2168 19.7821Z" fill="#1A1A1A" stroke="#1A1A1A" stroke-width="1.2"/>
<path d="M22.5742 32.25H23.4258C26.6591 32.25 29.25 29.678 29.25 26.4615V25.5385C29.25 22.322 26.6591 19.75 23.4258 19.75H22.5742C19.3409 19.75 16.75 22.322 16.75 25.5385V26.4615C16.75 29.678 19.3409 32.25 22.5742 32.25ZM18.7984 25.5385C18.7984 23.4473 20.4656 21.7885 22.5742 21.7885H23.4258C25.5344 21.7885 27.2016 23.4473 27.2016 25.5385V26.4615C27.2016 28.5527 25.5344 30.2115 23.4258 30.2115H22.5742C20.4656 30.2115 18.7984 28.5527 18.7984 26.4615V25.5385Z" fill="white" stroke="white" stroke-width="0.5"/>
</svg>
