<svg width="46" height="46" viewBox="0 0 46 46" fill="none" xmlns="http://www.w3.org/2000/svg">
<path d="M42.5584 22.5556L39.4673 8.55555C38.8049 5.22222 35.9345 3 32.6226 3H12.3093C8.99739 3 6.12704 5.22222 5.46466 8.55555L2.37351 22.5556C1.49032 27 2.15271 31.4444 4.58147 35.2222C7.01023 39 10.543 41.6667 14.9589 42.5555C16.0629 42.7778 17.1669 43 18.4916 43H26.4403C35.7137 43 43 35.4444 43 26.3333C43 25 43 23.6667 42.5584 22.5556Z" fill="#1A1A1A"/>
<path d="M24.6667 18.8C24.6667 20.24 23.8 21.2 22.5 21.2C21.2 21.2 20.3333 20.24 20.3333 18.8V14H16V18.8C16 22.88 18.8167 26 22.5 26C26.1833 26 29 22.88 29 18.8V14H24.6667V18.8Z" fill="white"/>
</svg>
