<svg width="46" height="46" viewBox="0 0 46 46" fill="none" xmlns="http://www.w3.org/2000/svg">
<circle cx="23.5" cy="22.5" r="18.5" fill="url(#paint0_linear_3784_712)"/>
<path d="M23 44.4C34.8186 44.4 44.4 34.8186 44.4 23C44.4 11.1814 34.8186 1.6 23 1.6C11.1814 1.6 1.6 11.1814 1.6 23C1.6 34.8186 11.1814 44.4 23 44.4Z" fill="#1A1A1A" stroke="#1A1A1A" stroke-width="0.8"/>
<path d="M12.4902 20.1019V23.861C12.4902 24.384 12.698 24.8856 13.0678 25.2554C13.4376 25.6252 13.9392 25.833 14.4622 25.833C14.9852 25.833 15.4868 25.6252 15.8566 25.2554C16.2265 24.8856 16.4342 24.384 16.4342 23.861V20.1019C16.4342 19.5789 16.2265 19.0773 15.8566 18.7075C15.4868 18.3376 14.9852 18.1299 14.4622 18.1299C13.9392 18.1299 13.4376 18.3376 13.0678 18.7075C12.698 19.0773 12.4902 19.5789 12.4902 20.1019ZM21.889 20.1019V23.861C21.889 24.384 22.0967 24.8856 22.4665 25.2554C22.8364 25.6252 23.3379 25.833 23.861 25.833C24.384 25.833 24.8855 25.6252 25.2554 25.2554C25.6252 24.8856 25.833 24.384 25.833 23.861V20.1019C25.833 19.5789 25.6252 19.0773 25.2554 18.7075C24.8855 18.3376 24.384 18.1299 23.861 18.1299C23.3379 18.1299 22.8364 18.3376 22.4665 18.7075C22.0967 19.0773 21.889 19.5789 21.889 20.1019Z" fill="white" stroke="white"/>
<defs>
<linearGradient id="paint0_linear_3784_712" x1="23.5" y1="4" x2="23.5" y2="41" gradientUnits="userSpaceOnUse">
<stop stop-color="#F1F1F1"/>
<stop offset="1" stop-color="#F1F1F1" stop-opacity="0"/>
</linearGradient>
</defs>
</svg>
