
<svg width="52" height="52" viewBox="0 0 52 52" fill="none" xmlns="http://www.w3.org/2000/svg">
<path d="M21.9375 30.875H15.4375C14.5437 30.875 13.8125 31.6063 13.8125 32.5C13.8125 33.3937 14.5437 34.125 15.4375 34.125H21.9375C22.8313 34.125 23.5625 33.3937 23.5625 32.5C23.5625 31.6063 22.8313 30.875 21.9375 30.875ZM30.0625 22.75H15.4375C14.5437 22.75 13.8125 23.4812 13.8125 24.375C13.8125 25.2688 14.5437 26 15.4375 26H30.0625C30.9562 26 31.6875 25.2688 31.6875 24.375C31.6875 23.4812 30.9562 22.75 30.0625 22.75ZM30.0625 14.625H15.4375C14.5437 14.625 13.8125 15.3562 13.8125 16.25C13.8125 17.1437 14.5437 17.875 15.4375 17.875H30.0625C30.9562 17.875 31.6875 17.1437 31.6875 16.25C31.6875 15.3562 30.9562 14.625 30.0625 14.625Z" fill="#1A1A1A" stroke="#1A1A1A" stroke-width="0.5"/>
<path d="M39.8125 13V11.375C39.8125 7.8 36.8875 4.875 33.3125 4.875H12.1875C8.6125 4.875 5.6875 7.8 5.6875 11.375V40.625C5.6875 44.2 8.6125 47.125 12.1875 47.125H39.8125C43.3875 47.125 46.3125 44.2 46.3125 40.625V19.5C46.3125 15.925 43.3875 13 39.8125 13ZM43.0625 40.625C43.0625 42.4125 41.6 43.875 39.8125 43.875H12.1875C10.4 43.875 8.9375 42.4125 8.9375 40.625V11.375C8.9375 9.5875 10.4 8.125 12.1875 8.125H33.3125C35.1 8.125 36.5625 9.5875 36.5625 11.375V35.75C36.5625 36.6437 37.2938 37.375 38.1875 37.375C39.0812 37.375 39.8125 36.6437 39.8125 35.75V16.25C41.6 16.25 43.0625 17.7125 43.0625 19.5V40.625Z" fill="#1A1A1A" stroke="#1A1A1A" stroke-width="0.5"/>
</svg>
