<svg xmlns="http://www.w3.org/2000/svg" width="34" height="34" viewBox="0 0 34 34" fill="none">
  <path d="M4.76906 1.56408L32.3303 29.1253C33.2016 29.9966 33.2016 31.4458 32.3303 32.3171C31.4591 33.1883 30.0098 33.1883 29.1386 32.3171L1.57731 4.75583C0.995062 3.88458 0.995062 2.43533 1.57731 1.56408C2.44856 0.692832 3.89781 0.692832 4.76906 1.56408Z" fill="#1A1A1A"/>
  <path d="M32.6236 4.75583L5.05808 32.3171C4.18683 33.1883 2.73758 33.1883 1.86633 32.3171C0.995078 31.4458 0.995078 29.9966 1.86633 29.1253L29.4318 1.56408C30.3031 0.692832 31.7523 0.692832 32.6236 1.56408C33.2016 2.43533 33.2016 3.88458 32.6236 4.75583Z" fill="#1A1A1A"/>
</svg>