<svg xmlns="http://www.w3.org/2000/svg" width="28" height="28" viewBox="0 0 28 28" fill="none">
  <path d="M17.4999 1.2832C18.7066 1.2832 19.8639 1.76258 20.7172 2.61587C21.5705 3.46916 22.0499 4.62647 22.0499 5.8332V5.94987H22.1665C23.3482 5.94988 24.4835 6.40961 25.3323 7.2318C26.181 8.05398 26.6766 9.17412 26.7142 10.3552L26.7165 10.4999V22.1665C26.7165 23.3482 26.2568 24.4835 25.4346 25.3323C24.6124 26.181 23.4923 26.6766 22.3112 26.7142L22.1665 26.7165H10.4999C9.31819 26.7165 8.18287 26.2568 7.33412 25.4346C6.48537 24.6124 5.98977 23.4923 5.9522 22.3112L5.94987 22.1665V22.0499H5.8332C4.65152 22.0499 3.5162 21.5901 2.66745 20.7679C1.8187 19.9458 1.32311 18.8256 1.28554 17.6445L1.2832 17.4999V5.8332C1.2832 4.62647 1.76258 3.46916 2.61587 2.61587C3.46916 1.76258 4.62647 1.2832 5.8332 1.2832H17.4999ZM22.0499 17.4999C22.0499 18.7066 21.5705 19.8639 20.7172 20.7172C19.8639 21.5705 18.7066 22.0499 17.4999 22.0499H8.04987V22.1665C8.04983 22.7951 8.29141 23.3997 8.72463 23.8552C9.15784 24.3107 9.74956 24.5822 10.3774 24.6136L10.4999 24.6165H22.1665C22.7951 24.6166 23.3997 24.375 23.8552 23.9418C24.3107 23.5086 24.5822 22.9168 24.6136 22.289L24.6165 22.1665V10.4999C24.6166 9.87127 24.375 9.26671 23.9418 8.81123C23.5086 8.35575 22.9168 8.08422 22.289 8.05279L22.1665 8.04987H22.0499V17.4999ZM17.4999 3.3832H5.8332C5.18342 3.3832 4.56026 3.64133 4.10079 4.10079C3.64133 4.56026 3.3832 5.18342 3.3832 5.8332V17.4999C3.3832 17.8216 3.44657 18.1402 3.5697 18.4374C3.69282 18.7347 3.87329 19.0048 4.10079 19.2323C4.32829 19.4598 4.59838 19.6402 4.89563 19.7634C5.19288 19.8865 5.51146 19.9499 5.8332 19.9499H17.4999C17.8216 19.9499 18.1402 19.8865 18.4374 19.7634C18.7347 19.6402 19.0048 19.4598 19.2323 19.2323C19.4598 19.0048 19.6402 18.7347 19.7634 18.4374C19.8865 18.1402 19.9499 17.8216 19.9499 17.4999V5.8332C19.9499 5.51146 19.8865 5.19288 19.7634 4.89563C19.6402 4.59838 19.4598 4.32829 19.2323 4.10079C19.0048 3.87329 18.7347 3.69282 18.4374 3.5697C18.1402 3.44657 17.8216 3.3832 17.4999 3.3832Z" fill="#999999"/>
</svg>