<svg width="24" height="24" viewBox="0 0 24 24" fill="none" xmlns="http://www.w3.org/2000/svg">
<path d="M12.0023 24C18.619 24 24.002 18.6168 24.002 11.9999C24.002 5.38325 18.619 0 12.0023 0C5.38558 0 0.00244141 5.38325 0.00244141 11.9999C0.00244141 18.6168 5.38558 24 12.0023 24ZM12.0023 1.6427C17.7132 1.6427 22.3593 6.28892 22.3594 11.9999C22.3594 17.711 17.7133 22.3572 12.0023 22.3573C6.29137 22.3572 1.64525 17.711 1.64525 11.9998C1.64525 6.28903 6.29137 1.6427 12.0023 1.6427Z" fill="#191B23"/>
<path d="M10.3908 17.1396C10.7116 17.4603 11.2316 17.4602 11.5523 17.1396C11.8732 16.8188 11.8732 16.2988 11.5522 15.9779L8.396 12.8218L17.5357 12.821C17.9893 12.8209 18.3569 12.4532 18.3569 11.9994C18.3568 11.5458 17.9892 11.1783 17.5356 11.1783L8.39556 11.1791L11.5525 8.02241C11.8733 7.70165 11.8733 7.18146 11.5525 6.8608C11.3921 6.70048 11.1819 6.6202 10.9716 6.6202C10.7615 6.6202 10.5513 6.70048 10.3909 6.86069L5.83196 11.4195C5.67787 11.5735 5.59136 11.7823 5.59136 12.0003C5.59146 12.2182 5.67798 12.4269 5.83207 12.5812L10.3908 17.1396Z" fill="#191B23"/>
</svg>
