<svg width="24" height="24" viewBox="0 0 24 24" fill="none" xmlns="http://www.w3.org/2000/svg">
<path d="M9.59998 12C9.59998 13.5268 10.8424 14.7692 12.3692 14.7692C13.896 14.7692 15.1384 13.5268 15.1384 12C15.1384 10.4732 13.896 9.23077 12.3692 9.23077C10.8424 9.23077 9.59998 10.4732 9.59998 12Z" fill="#191B23"/>
<path d="M9.59998 21.2308C9.59998 22.7575 10.8424 24 12.3692 24C13.896 24 15.1384 22.7575 15.1384 21.2308C15.1384 19.704 13.896 18.4615 12.3692 18.4615C10.8424 18.4615 9.59998 19.704 9.59998 21.2308Z" fill="#191B23"/>
<path d="M9.59998 2.76923C9.59998 4.296 10.8424 5.53846 12.3692 5.53846C13.896 5.53846 15.1384 4.296 15.1384 2.76923C15.1384 1.24246 13.896 0 12.3692 0C10.8424 0 9.59998 1.24246 9.59998 2.76923Z" fill="#191B23"/>
</svg>
