<svg width="20" height="20" viewBox="0 0 20 20" fill="none" xmlns="http://www.w3.org/2000/svg">
<path d="M18.1976 19.1667H12.2422C11.814 19.1667 11.4637 18.8155 11.4637 18.3862V14.6785C11.4637 13.7418 10.7241 13.0003 9.78992 13.0003C8.85574 13.0003 8.11618 13.7418 8.11618 14.6785V18.3862C8.11618 18.8155 7.76586 19.1667 7.33769 19.1667H1.46013C1.03196 19.1667 0.681641 18.8155 0.681641 18.3862V8.39502C0.681641 7.69252 1.03196 7.02905 1.5769 6.63877L9.40068 0.979728C9.67315 0.784589 10.0235 0.784589 10.2959 0.979728L18.1197 6.63877C18.6647 7.02905 19.015 7.69252 19.015 8.39502V18.4252C18.9761 18.8155 18.6257 19.1667 18.1976 19.1667ZM13.0206 17.6446H17.458V8.39502C17.458 8.19988 17.3412 8.00474 17.1855 7.88766L9.82885 2.54084L2.47216 7.84863C2.31646 7.96571 2.19969 8.16085 2.19969 8.35599V17.6056H6.63706V14.6785C6.63706 12.9223 8.07725 11.4782 9.82885 11.4782C11.5804 11.4782 13.0206 12.9223 13.0206 14.6785V17.6446Z" fill="#191B23"/>
</svg>
