<svg xmlns="http://www.w3.org/2000/svg" width="60" height="60" viewBox="0 0 60 60" fill="none">
  <g filter="url(#filter0_i_3783_244)">
    <path d="M47.332 34.2362C45.6304 34.2285 43.9556 33.8129 42.4486 33.0244C40.9416 32.236 39.6466 31.0978 38.6725 29.7056C37.7042 31.1033 36.4105 32.2456 34.9024 33.0347C33.3943 33.8238 31.7169 34.236 30.014 34.236C28.3111 34.236 26.6337 33.8238 25.1256 33.0347C23.6175 32.2456 22.3238 31.1033 21.3555 29.7056C20.9413 30.2881 20.472 30.8295 19.9541 31.3224C18.8666 32.355 17.5716 33.1451 16.1549 33.6406C14.7382 34.1361 13.2321 34.3256 11.7365 34.1965C8.98636 33.8456 6.46368 32.4915 4.65454 30.3952C2.8454 28.2989 1.87781 25.6087 1.93821 22.8429C1.93827 21.3892 2.26687 19.9542 2.89958 18.6447L7.70997 8.70928C8.51815 6.98119 9.80195 5.51789 11.4117 4.48994C13.0215 3.46199 14.8909 2.91174 16.8021 2.90332L43.1861 2.90332C45.097 2.91055 46.9666 3.45991 48.5764 4.48729C50.1863 5.51467 51.4702 6.97769 52.2782 8.70563L57.1012 18.6718C57.7213 19.9569 58.0496 21.3626 58.0626 22.7888V23.1157C58.09 24.549 57.8341 25.9735 57.3096 27.3081C56.7851 28.6427 56.0023 29.8611 55.0059 30.8937C54.0094 31.9264 52.8188 32.7531 51.5021 33.3266C50.1854 33.9001 48.7684 34.2092 47.332 34.2362ZM47.332 34.2362V38.0298C45.6303 38.0218 43.9554 37.606 42.4484 36.8172C40.9414 36.0284 39.6464 34.8899 38.6725 33.4974C37.7045 34.8954 36.4109 36.0382 34.9027 36.8275C33.3946 37.6168 31.717 38.0292 30.014 38.0292C28.311 38.0292 26.6334 37.6168 25.1253 36.8275C23.6172 36.0382 22.3235 34.8954 21.3555 33.4974C20.942 34.0832 20.4727 34.6276 19.9541 35.1232C18.8666 36.1558 17.5716 36.9459 16.1549 37.4414C14.7382 37.9369 13.2321 38.1263 11.7365 37.9972C9.47935 37.7789 7.35815 36.821 5.70401 35.2731V46.9446C5.66525 49.5915 6.6791 52.146 8.52363 54.0487C10.3682 55.9514 12.8931 57.0475 15.5457 57.0969H44.4841C47.1389 57.0479 49.666 55.9506 51.5112 54.0455C53.3564 52.1403 54.3692 49.5829 54.3276 46.9338V35.3436C52.4096 37.0665 49.9218 38.0224 47.341 38.028L47.332 34.2362Z" fill="url(#paint0_linear_3783_244)"/>
  </g>
  <rect x="21" y="17.4194" width="19" height="4.83871" rx="2.41935" fill="white"/>
  <defs>
    <filter id="filter0_i_3783_244" x="-0.0644531" y="0.90332" width="58.1289" height="56.1934" filterUnits="userSpaceOnUse" color-interpolation-filters="sRGB">
      <feFlood flood-opacity="0" result="BackgroundImageFix"/>
      <feBlend mode="normal" in="SourceGraphic" in2="BackgroundImageFix" result="shape"/>
      <feColorMatrix in="SourceAlpha" type="matrix" values="0 0 0 0 0 0 0 0 0 0 0 0 0 0 0 0 0 0 127 0" result="hardAlpha"/>
      <feOffset dx="-2" dy="-2"/>
      <feGaussianBlur stdDeviation="4"/>
      <feComposite in2="hardAlpha" operator="arithmetic" k2="-1" k3="1"/>
      <feColorMatrix type="matrix" values="0 0 0 0 0.201476 0 0 0 0 0.879167 0 0 0 0 0.634683 0 0 0 1 0"/>
      <feBlend mode="normal" in2="shape" result="effect1_innerShadow_3783_244"/>
    </filter>
    <linearGradient id="paint0_linear_3783_244" x1="5.69679" y1="4.77495" x2="27.8733" y2="30.8797" gradientUnits="userSpaceOnUse">
      <stop stop-color="#7CEBAB"/>
      <stop offset="1" stop-color="#52F0B8"/>
    </linearGradient>
  </defs>
</svg>