<svg xmlns="http://www.w3.org/2000/svg" width="60" height="60" viewBox="0 0 60 60" fill="none">
  <path d="M55.652 30.162C56.1404 30.9313 56.3997 31.8236 56.3996 32.7348V49.2C56.3996 51.1096 55.641 52.9409 54.2908 54.2912C52.9405 55.6414 51.1092 56.4 49.1996 56.4H10.7996C8.89005 56.4 7.0587 55.6414 5.70844 54.2912C4.35818 52.9409 3.59961 51.1096 3.59961 49.2V32.7528C3.59962 31.8924 3.83092 31.0478 4.26928 30.3074C4.70765 29.567 5.33698 28.9581 6.09139 28.5443C6.84581 28.1305 7.69757 27.9272 8.55753 27.9555C9.4175 27.9838 10.254 28.2427 10.9796 28.7052L29.9492 40.8L49.0256 28.6836C49.5577 28.3455 50.1513 28.1155 50.7723 28.0068C51.3934 27.8981 52.0297 27.9128 52.6451 28.0501C53.2604 28.1874 53.8427 28.4446 54.3586 28.8069C54.8746 29.1693 55.3141 29.6298 55.652 30.162ZM41.9996 6C43.9092 6 45.7405 6.75857 47.0908 8.10883C48.441 9.45909 49.1996 11.2904 49.1996 13.2V25.2L30.0392 37.2L10.7996 25.2V13.2C10.7996 11.2904 11.5582 9.45909 12.9084 8.10883C14.2587 6.75857 16.0901 6 17.9996 6H41.9996Z" fill="url(#paint0_linear_3784_291)"/>
  <path d="M22.2004 13.2002H37.8004C39.0004 13.2002 39.6004 13.8002 39.6004 15.0002C39.6004 16.2002 39.0004 16.8002 37.8004 16.8002H22.2004C21.0004 16.8002 20.4004 16.2002 20.4004 15.0002C20.4004 13.8002 21.0004 13.2002 22.2004 13.2002Z" fill="white"/>
  <path d="M22.2004 21.6001H28.2004C29.4004 21.6001 30.0004 22.2001 30.0004 23.4001C30.0004 24.6001 29.4004 25.2001 28.2004 25.2001H22.2004C21.0004 25.2001 20.4004 24.6001 20.4004 23.4001C20.4004 22.2001 21.0004 21.6001 22.2004 21.6001Z" fill="white"/>
  <defs>
    <linearGradient id="paint0_linear_3784_291" x1="15.5" y1="8.5" x2="39.5" y2="40" gradientUnits="userSpaceOnUse">
      <stop stop-color="#79BFFF"/>
      <stop offset="1" stop-color="#428DFF"/>
    </linearGradient>
  </defs>
</svg>