<svg xmlns="http://www.w3.org/2000/svg" width="46" height="46" viewBox="0 0 46 46" fill="none">
  <path d="M34.873 20.9785C34.873 17.2006 33.3996 13.6473 30.7268 10.9744C28.0584 8.30156 24.5051 6.82812 20.7227 6.82812C16.9402 6.82812 13.3914 8.30156 10.7186 10.9744C8.0457 13.6473 6.57227 17.2006 6.57227 20.9785C6.57227 24.7564 8.0457 28.3098 10.7186 30.9826C13.3914 33.6555 16.9447 35.1289 20.7227 35.1289C24.5006 35.1289 28.0539 33.6555 30.7268 30.9826C33.4041 28.3098 34.873 24.7564 34.873 20.9785ZM20.7227 32.4336C14.4066 32.4336 9.26758 27.2945 9.26758 20.9785C9.26758 14.6625 14.4066 9.52344 20.7227 9.52344C27.0387 9.52344 32.1777 14.6625 32.1777 20.9785C32.1777 27.2945 27.0387 32.4336 20.7227 32.4336ZM38.8307 34.8639L34.4508 30.484C33.6557 29.6889 32.3529 29.6889 31.5533 30.484L30.6998 31.3375C29.9047 32.1326 29.9047 33.4354 30.6998 34.235L35.0797 38.6148C35.8748 39.41 37.1775 39.41 37.9771 38.6148L38.8307 37.7613C39.6258 36.9662 39.6258 35.6635 38.8307 34.8639Z" fill="#C1C1C1"/>
</svg>