<svg width="24" height="24" viewBox="0 0 24 24" fill="none" xmlns="http://www.w3.org/2000/svg">
<path fill-rule="evenodd" clip-rule="evenodd" d="M8.77482 11.3552C7.80739 10.477 7.1999 9.20946 7.1999 7.8C7.1999 5.14903 9.34894 3 11.9999 3C14.6509 3 16.7999 5.14903 16.7999 7.8C16.7999 9.20946 16.1924 10.477 15.225 11.3552C18.9405 12.6801 21.5999 16.2295 21.5999 20.4H19.7999C19.7999 16.0922 16.3077 12.6 11.9999 12.6C7.69208 12.6 4.1999 16.0922 4.1999 20.4H2.3999C2.3999 16.2295 5.05931 12.6801 8.77482 11.3552ZM11.9999 10.8C13.6568 10.8 14.9999 9.45685 14.9999 7.8C14.9999 6.14315 13.6568 4.8 11.9999 4.8C10.343 4.8 8.9999 6.14315 8.9999 7.8C8.9999 9.45685 10.343 10.8 11.9999 10.8Z" fill="#191B23"/>
</svg>
