<svg xmlns="http://www.w3.org/2000/svg" width="46" height="46" viewBox="0 0 46 46" fill="none">
  <path d="M33.8428 42H12.2774C7.17791 42 3 38.3014 3 33.8014V22.9521C3 19.9315 3 15.8014 10.0041 15L10.3113 18.0822C6.01055 18.5753 6.01055 19.9315 6.01055 22.9521V33.8014C6.01055 36.637 8.77535 38.9178 12.216 38.9178H33.7814C37.222 38.9178 39.9868 36.637 39.9868 33.8014V22.9521C39.9868 19.9932 39.9868 18.637 35.9932 18.1438L36.3619 15.0616C42.9974 15.863 42.9974 19.9315 42.9974 22.9521V33.8014C43.1202 38.363 38.9423 42 33.8428 42Z" fill="#1A1A1A"/>
  <path d="M11.0526 27L8 26V11.875C8 7.5 11.48 4 15.6926 4H29.3074C33.5811 4 37 7.5625 37 11.875V25.3125L33.9474 26.3125V11.875C33.9474 9.25 31.8716 7.125 29.3074 7.125H15.7537C13.1895 7.125 11.1137 9.25 11.1137 11.875V27H11.0526Z" fill="#1A1A1A"/>
  <path d="M21.8025 31.0002C14.2208 31.0002 7.18507 27.6285 3 22.05L5.42613 20.2109C9.06532 25.0538 15.1913 27.9963 21.8025 27.9963C29.3235 27.9963 36.056 24.3182 39.3919 18.4331L42 19.9657C38.1788 26.7703 30.4152 31.0002 21.8025 31.0002Z" fill="#1A1A1A"/>
  <path d="M19.4968 18.0651H25.5621C26.4113 18.0651 27.0784 17.3908 27.0784 16.5326C27.0784 15.6743 26.4113 15 25.5621 15H19.4968C18.6477 15 17.9805 15.6743 17.9805 16.5326C17.9805 17.3908 18.6477 18.0651 19.4968 18.0651Z" fill="#1A1A1A"/>
</svg>