<svg xmlns="http://www.w3.org/2000/svg" width="46" height="46" viewBox="0 0 46 46" fill="none">
  <path d="M32.7433 7.51892H32.0809C31.7357 6.28335 30.996 5.19454 29.9745 4.41845C28.953 3.64236 27.7057 3.22157 26.4229 3.22021H20.0381C18.7549 3.22171 17.5074 3.64284 16.4859 4.41937C15.4643 5.1959 14.7248 6.28522 14.3801 7.52121H13.7177C11.6393 7.52365 9.64677 8.35019 8.17694 9.81958C6.70712 11.289 5.88 13.2813 5.87695 15.3596V34.8544C5.87939 36.9332 6.70624 38.926 8.17613 40.3959C9.64602 41.8658 11.6389 42.6927 13.7177 42.6951H32.7433C34.822 42.6927 36.8149 41.8658 38.2848 40.3959C39.7547 38.926 40.5815 36.9332 40.584 34.8544V15.3596C40.5815 13.2809 39.7547 11.288 38.2848 9.81809C36.8149 8.3482 34.822 7.52135 32.7433 7.51892ZM20.0381 5.98021H26.4229C26.8315 5.98021 27.2362 6.06071 27.6137 6.21709C27.9913 6.37348 28.3343 6.6027 28.6233 6.89167C28.9123 7.18064 29.1415 7.52369 29.2979 7.90124C29.4543 8.2788 29.5348 8.68345 29.5348 9.09211C29.5348 9.50077 29.4543 9.90543 29.2979 10.283C29.1415 10.6605 28.9123 11.0036 28.6233 11.2926C28.3343 11.5815 27.9913 11.8107 27.6137 11.9671C27.2362 12.1235 26.8315 12.204 26.4229 12.204H20.0381C19.2127 12.204 18.4212 11.8762 17.8376 11.2926C17.254 10.709 16.9262 9.91744 16.9262 9.09211C16.9262 8.26679 17.254 7.47526 17.8376 6.89167C18.4212 6.30808 19.2127 5.98021 20.0381 5.98021ZM37.824 34.8567C37.8221 36.2036 37.2863 37.4949 36.3338 38.4473C35.3814 39.3997 34.0902 39.9356 32.7433 39.9374H13.7177C12.3707 39.9356 11.0795 39.3997 10.1271 38.4473C9.17465 37.4949 8.63878 36.2036 8.63695 34.8567V15.3596C8.63878 14.0127 9.17465 12.7215 10.1271 11.769C11.0795 10.8166 12.3707 10.2807 13.7177 10.2789H14.2858C14.5613 11.6008 15.2831 12.7876 16.3301 13.6403C17.3771 14.4929 18.6855 14.9595 20.0358 14.9617H26.4206C27.7708 14.9595 29.0792 14.4929 30.1262 13.6403C31.1732 12.7876 31.895 11.6008 32.1706 10.2789H32.7387C34.0856 10.2807 35.3768 10.8166 36.3292 11.769C37.2817 12.7215 37.8175 14.0127 37.8194 15.3596L37.824 34.8567Z" fill="#1A1A1A" stroke="#1A1A1A" stroke-width="0.5"/>
  <path d="M28.8668 20.585H17.5968C17.2308 20.585 16.8798 20.7304 16.621 20.9892C16.3622 21.248 16.2168 21.599 16.2168 21.965C16.2168 22.331 16.3622 22.682 16.621 22.9408C16.8798 23.1996 17.2308 23.345 17.5968 23.345H28.8668C29.2328 23.345 29.5838 23.1996 29.8426 22.9408C30.1014 22.682 30.2468 22.331 30.2468 21.965C30.2468 21.599 30.1014 21.248 29.8426 20.9892C29.5838 20.7304 29.2328 20.585 28.8668 20.585ZM28.8668 29.1295H17.5968C17.4156 29.1295 17.2361 29.1652 17.0687 29.2345C16.9013 29.3039 16.7491 29.4055 16.621 29.5337C16.4928 29.6618 16.3912 29.8139 16.3218 29.9814C16.2525 30.1488 16.2168 30.3282 16.2168 30.5095C16.2168 30.6907 16.2525 30.8701 16.3218 31.0376C16.3912 31.205 16.4928 31.3571 16.621 31.4853C16.7491 31.6134 16.9013 31.7151 17.0687 31.7844C17.2361 31.8538 17.4156 31.8895 17.5968 31.8895H28.8668C29.2328 31.8895 29.5838 31.7441 29.8426 31.4853C30.1014 31.2265 30.2468 30.8755 30.2468 30.5095C30.2468 30.1435 30.1014 29.7925 29.8426 29.5337C29.5838 29.2749 29.2328 29.1295 28.8668 29.1295Z" fill="#1A1A1A" stroke="#1A1A1A" stroke-width="0.5"/>
</svg>