<svg xmlns="http://www.w3.org/2000/svg" width="40" height="40" viewBox="0 0 40 40" fill="none">
  <path d="M31.5645 17.983C31.5645 14.2498 30.1294 10.7385 27.5261 8.09724C24.9272 5.45601 21.4663 4 17.7823 4C14.0982 4 10.6417 5.45601 8.03842 8.09724C5.43511 10.7385 4 14.2498 4 17.983C4 21.7162 5.43511 25.2275 8.03842 27.8688C10.6417 30.51 14.1026 31.966 17.7823 31.966C21.4619 31.966 24.9228 30.51 27.5261 27.8688C30.1338 25.2275 31.5645 21.7162 31.5645 17.983ZM17.7823 29.3026C11.6306 29.3026 6.62519 24.2243 6.62519 17.983C6.62519 11.7417 11.6306 6.66343 17.7823 6.66343C23.934 6.66343 28.9393 11.7417 28.9393 17.983C28.9393 24.2243 23.934 29.3026 17.7823 29.3026ZM35.4192 31.7041L31.1532 27.376C30.3788 26.5903 29.11 26.5903 28.3312 27.376L27.4998 28.2195C26.7254 29.0052 26.7254 30.2925 27.4998 31.0826L31.7658 35.4107C32.5402 36.1964 33.8091 36.1964 34.5879 35.4107L35.4192 34.5673C36.1936 33.7816 36.1936 32.4943 35.4192 31.7041Z" fill="#999999"/>
</svg>