<svg xmlns="http://www.w3.org/2000/svg" width="46" height="46" viewBox="0 0 46 46" fill="none">
  <path d="M23.0086 44C21.3251 44.0045 19.6701 43.5537 18.2102 42.6929L8.79218 37.1118C7.33719 36.2457 6.12893 35.0029 5.28802 33.5075C4.44712 32.012 4.003 30.3162 4 28.5894V17.324C4.00227 15.6262 4.43834 13.9588 5.26466 12.4882C6.09099 11.0176 7.27863 9.7953 8.70899 8.94345L18.207 3.31397C19.6647 2.45308 21.3168 2 22.9984 2C24.68 2 26.3322 2.45308 27.7898 3.31397L37.2078 8.8951C38.6628 9.76117 39.8711 11.004 40.712 12.4994C41.5529 13.9949 41.997 15.6907 42 17.4175V28.5797C41.997 30.3065 41.5529 32.0023 40.712 33.4978C39.8711 34.9932 38.6628 36.236 37.2078 37.1021L27.7898 42.6833C26.3358 43.5443 24.6871 43.9984 23.0086 44ZM23.0086 5.22538C21.8779 5.22467 20.767 5.52984 19.7877 6.11017L10.2896 11.7397C9.33614 12.307 8.54436 13.1213 7.99345 14.1013C7.44254 15.0812 7.15181 16.1925 7.15032 17.324V28.583C7.15199 29.744 7.45051 30.8843 8.01603 31.8897C8.58154 32.8952 9.39423 33.7306 10.3728 34.3124L19.7908 39.8935C20.7707 40.4732 21.8817 40.7784 23.0126 40.7784C24.1434 40.7784 25.2544 40.4732 26.2343 39.8935L35.6523 34.3124C36.6307 33.7303 37.4432 32.8949 38.0087 31.8895C38.5742 30.8841 38.8728 29.744 38.8748 28.583V17.4207C38.8728 16.2597 38.5742 15.1196 38.0087 14.1142C37.4432 13.1088 36.6307 12.2733 35.6523 11.6913L26.2343 6.11017C25.2536 5.52902 24.1409 5.22382 23.0086 5.22538Z" fill="#1A1A1A" stroke="#1A1A1A" stroke-width="0.5"/>
  <path d="M23.0822 29H22.9178C21.3488 28.9982 19.8447 28.3741 18.7353 27.2647C17.6259 26.1553 17.0018 24.6512 17 23.0822V22.9164C17.0018 21.3476 17.6259 19.8436 18.7353 18.7344C19.8448 17.6252 21.349 17.0014 22.9178 17H23.0822C24.6509 17.0018 26.1549 17.6257 27.2643 18.7348C28.3736 19.8439 28.9978 21.3477 29 22.9164V23.0822C28.9982 24.6512 28.3741 26.1553 27.2647 27.2647C26.1553 28.3741 24.6512 28.9982 23.0822 29ZM22.9178 19.7177C22.0695 19.7184 21.2562 20.0556 20.6563 20.6553C20.0563 21.255 19.7188 22.0682 19.7177 22.9164V23.0822C19.7188 23.9306 20.0563 24.7439 20.6562 25.3438C21.2561 25.9437 22.0694 26.2812 22.9178 26.2823H23.0822C23.9306 26.2812 24.7439 25.9437 25.3438 25.3438C25.9437 24.7439 26.2812 23.9306 26.2823 23.0822V22.9164C26.2809 22.0683 25.9432 21.2553 25.3433 20.6557C24.7435 20.0561 23.9304 19.7188 23.0822 19.7177H22.9178Z" fill="#1A1A1A" stroke="#1A1A1A" stroke-width="0.5"/>
</svg>