<svg xmlns="http://www.w3.org/2000/svg" width="46" height="46" viewBox="0 0 46 46" fill="none">
  <path d="M36.0986 9.95911C36.0717 9.86028 36.0717 9.76145 36.0268 9.66262L35.1059 7.68606C34.167 5.67805 32.5004 4.15071 30.4025 3.38704C28.3092 2.62786 26.0496 2.7222 24.0371 3.65657L12.892 8.85852C12.4697 9.05618 12.1732 9.40657 12.0295 9.81087H11.3422C6.75117 9.81087 3.01367 13.5484 3.01367 18.1394V34.7919C3.01367 39.3829 6.75117 43.1204 11.3422 43.1204H34.6566C39.2477 43.1204 42.9852 39.3829 42.9852 34.7919V18.1349C42.9807 14.0425 40.0023 10.6464 36.0986 9.95911ZM25.4477 6.67981C26.6516 6.11829 28.0037 6.06438 29.266 6.52259C30.5238 6.98079 31.5256 7.89719 32.0871 9.09661L32.4195 9.81087H18.7318L25.4477 6.67981ZM39.652 31.4632H32.4645C29.7107 31.4632 27.4691 29.2216 27.4691 26.4679C27.4691 23.7142 29.7107 21.4726 32.4645 21.4726H39.652V31.4632ZM32.4645 18.1394C27.8734 18.1394 24.1359 21.8769 24.1359 26.4679C24.1359 31.0589 27.8734 34.7964 32.4645 34.7964H39.652C39.652 37.5501 37.4104 39.7917 34.6566 39.7917H11.3422C8.58848 39.7917 6.34688 37.5501 6.34688 34.7964V18.1394C6.34688 15.3857 8.58848 13.1441 11.3422 13.1441H34.6566C37.4104 13.1441 39.652 15.3857 39.652 18.1394H32.4645Z" fill="#1A1A1A"/>
  <path d="M29.5234 26.4679C29.5234 27.3507 29.8741 28.1974 30.4984 28.8216C31.1226 29.4459 31.9693 29.7966 32.8521 29.7966C33.735 29.7966 34.5816 29.4459 35.2059 28.8216C35.8302 28.1974 36.1809 27.3507 36.1809 26.4679C36.1809 25.585 35.8302 24.7384 35.2059 24.1141C34.5816 23.4899 33.735 23.1392 32.8521 23.1392C31.9693 23.1392 31.1226 23.4899 30.4984 24.1141C29.8741 24.7384 29.5234 25.585 29.5234 26.4679Z" fill="#1A1A1A"/>
</svg>