<svg xmlns="http://www.w3.org/2000/svg" width="180" height="180" viewBox="0 0 180 180" fill="none">
  <path d="M2.9043 137.328C2.90385 139.883 5.15664 142.413 9.53401 144.773C13.9114 147.134 20.3276 149.278 28.4164 151.085C36.5051 152.891 46.108 154.325 56.6766 155.302C67.2452 156.28 78.5726 156.783 90.012 156.783C101.451 156.783 112.779 156.28 123.348 155.302C133.916 154.325 143.519 152.891 151.608 151.085C159.696 149.278 166.113 147.134 170.49 144.773C174.867 142.413 177.12 139.883 177.12 137.328C177.12 134.774 174.867 132.244 170.49 129.883C166.113 127.523 159.696 125.378 151.608 123.572C143.519 121.765 133.916 120.332 123.348 119.354C112.779 118.377 101.451 117.874 90.012 117.874C78.5726 117.874 67.2452 118.377 56.6766 119.354C46.108 120.332 36.5051 121.765 28.4164 123.572C20.3276 125.378 13.9114 127.523 9.53401 129.883C5.15664 132.244 2.90385 134.774 2.9043 137.328Z" fill="#F5F5F9"/>
  <path d="M98.4315 67.6422V148.072L21.4863 124.843V47.6074L98.4315 67.6422Z" fill="white"/>
  <path d="M98.4321 149.524H98.1418L21.1966 126.295C20.3255 126.005 20.0352 125.424 20.0352 124.843V47.6076C20.0352 47.0268 20.3255 46.7365 20.6159 46.4461C20.9062 46.1558 21.487 46.1558 21.7773 46.1558L98.7225 66.1905C99.3032 66.4809 99.8839 67.0616 99.8839 67.6423V148.072C99.8839 148.653 99.5936 148.943 99.3032 149.233C99.0128 149.524 98.7225 149.524 98.4321 149.524ZM22.9387 123.682L96.9803 146.039V68.8038L22.9387 49.3497V123.682Z" fill="#E9E9ED"/>
  <path d="M98.4316 147.781L157.375 122.23L157.955 45.8652L98.4316 67.6422V147.781Z" fill="white"/>
  <path d="M98.4323 149.233C98.1419 149.233 97.8515 149.233 97.5612 148.943C97.2708 148.653 96.9805 148.362 96.9805 147.782V67.6425C96.9805 67.0617 97.2708 66.481 97.8515 66.1907L157.375 44.4137C157.956 44.1234 158.246 44.4137 158.827 44.7041C159.117 44.9944 159.408 45.2848 159.408 45.8655L158.827 122.23C158.827 122.811 158.537 123.391 157.956 123.682L99.013 149.233H98.4323ZM99.8841 68.5135V145.459L155.923 121.069L156.504 47.6077L99.8841 68.5135Z" fill="#E9E9ED"/>
  <path d="M21.4863 47.6077L79.8485 26.1211L79.2678 62.9967L21.4863 47.6077Z" fill="white"/>
  <path d="M79.2671 64.158H78.9768L21.1953 48.7689C20.6146 48.4786 20.3242 48.1882 20.3242 47.6075C20.3242 47.0268 20.6146 46.7364 21.1953 46.446L79.5575 24.9595H80.7189C81.0093 25.2498 81.2996 25.5402 81.2996 25.8306L80.7189 62.7062C80.7189 62.9965 80.4286 63.2869 80.1382 63.5772C79.8478 64.158 79.5575 64.158 79.2671 64.158ZM25.2603 47.3171L78.1057 61.2544L78.6864 27.5727L25.2603 47.3171Z" fill="#E9E9ED"/>
  <path d="M79.2676 62.7063L99.3024 68.2232L158.245 45.8655L80.1387 26.1211L79.2676 62.7063Z" fill="white"/>
  <path d="M99.303 69.6746H99.0126L78.9778 64.1578C78.3971 63.8674 77.8164 63.2867 77.8164 62.706L78.6875 26.1207C78.6875 25.54 78.9778 25.2497 79.2682 24.9593C79.5586 24.6689 80.1393 24.6689 80.4296 24.6689L158.536 44.4134C159.117 44.7037 159.698 45.2844 159.698 45.8652C159.698 46.4459 159.407 47.0266 158.827 47.317L99.8837 69.6746H99.303ZM80.72 61.5446L99.303 66.771L153.6 46.1555L81.5911 27.8629L80.72 61.5446Z" fill="#E9E9ED"/>
  <path d="M98.1406 67.0615L118.756 101.905L177.118 75.7722L158.245 45.8652L98.1406 67.0615Z" fill="#F2F2F6"/>
  <path d="M118.756 103.356C118.176 103.356 117.885 103.066 117.595 102.776L96.9795 67.9325C96.6891 67.6421 96.6891 67.0614 96.9795 66.7711C97.2698 66.4807 97.5602 65.9 97.8506 65.9L157.955 44.7038C158.536 44.4134 159.407 44.7038 159.697 45.2845L178.57 75.1915C178.861 75.4818 178.861 76.0625 178.861 76.3529C178.861 76.6433 178.57 77.224 177.99 77.224L119.628 103.356H118.756ZM100.173 67.9325L119.337 100.162L175.086 75.1915L157.665 47.6073L100.173 67.9325Z" fill="#E9E9ED"/>
  <path d="M99.3035 67.0615L78.688 99.5817L2.9043 78.3855L21.4873 47.6074L99.3035 67.0615Z" fill="#F2F2F6"/>
  <path d="M78.6875 101.034H78.3971L2.61341 79.8374C2.03269 79.8374 1.74233 79.2567 1.74233 78.9663C1.45197 78.676 1.74233 78.0953 1.74233 77.8049L20.3253 46.7365C20.6157 46.4461 21.1964 46.1558 21.7771 46.1558L99.5934 65.6098C100.174 65.6098 100.464 65.9002 100.464 66.4809C100.755 66.7713 100.464 67.352 100.464 67.9327L79.8489 100.453C79.5586 100.743 79.2682 101.034 78.6875 101.034ZM5.22664 77.5146L78.1068 97.8397L96.9801 67.9327L22.0675 49.3497L5.22664 77.5146Z" fill="#E9E9ED"/>
</svg>