<svg xmlns="http://www.w3.org/2000/svg" width="40" height="40" viewBox="0 0 40 40" fill="none">
  <path d="M32.0943 19.7061H35.5923C36.5063 19.7061 37.2483 18.9621 37.2483 18.0501C37.2483 17.1381 36.5063 16.3941 35.5923 16.3941H32.0943C31.1803 16.3941 30.4383 17.1361 30.4383 18.0501C30.4383 18.9641 31.1803 19.7061 32.0943 19.7061ZM32.2283 14.5281C32.4483 14.5281 32.6623 14.4841 32.8663 14.4001L36.0923 13.0501C36.2935 12.9668 36.4762 12.8443 36.6297 12.6898C36.7831 12.5353 36.9044 12.3519 36.9863 12.1501C37.1543 11.7401 37.1523 11.2901 36.9823 10.8821C36.8993 10.681 36.7769 10.4985 36.6223 10.3454C36.4678 10.1922 36.2842 10.0714 36.0823 9.99014C35.6723 9.82214 35.2223 9.82414 34.8143 9.99414L31.5883 11.3441C31.3871 11.4275 31.2045 11.5499 31.051 11.7044C30.8976 11.8589 30.7763 12.0424 30.6943 12.2441C30.5263 12.6541 30.5283 13.1041 30.6983 13.5121C30.8253 13.8131 31.0382 14.0699 31.3103 14.2506C31.5824 14.4313 31.9017 14.5278 32.2283 14.5281ZM36.0943 23.1601L32.8683 21.8101C32.0263 21.4581 31.0543 21.8561 30.7023 22.6981C30.3503 23.5401 30.7483 24.5121 31.5903 24.8641L34.8163 26.2141C35.0203 26.3001 35.2343 26.3421 35.4543 26.3421C36.1243 26.3421 36.7243 25.9421 36.9823 25.3241C37.3343 24.4841 36.9363 23.5121 36.0943 23.1601ZM26.0563 3.99614L15.5183 10.1001H6.49634C4.51234 10.1001 2.90234 11.7081 2.90234 13.6941V22.9041C2.90234 24.8881 4.51034 26.4981 6.49634 26.4981V30.2981C6.49634 32.6201 8.29834 34.6021 10.6203 34.6901C13.0603 34.7821 15.0763 32.8241 15.0763 30.4041V26.5001H15.4543L26.0783 32.1181C27.1483 32.6841 28.4383 31.9081 28.4383 30.6961V5.40614C28.4383 4.18214 27.1283 3.40814 26.0563 3.99614ZM25.5623 24.4361C25.5623 25.3421 24.8283 26.0761 23.9223 26.0761C23.0163 26.0761 22.2823 25.3421 22.2823 24.4361V13.5761C22.2823 12.6701 23.0163 11.9361 23.9223 11.9361C24.8283 11.9361 25.5623 12.6701 25.5623 13.5761V24.4361Z" fill="#9F72FF"/>
  <path d="M28.4383 19.9844V5.40638C28.4383 4.18438 27.1283 3.40838 26.0563 3.99638L15.5183 10.1004H6.49634C4.51234 10.1004 2.90234 11.7104 2.90234 13.6944V22.9044C2.90234 24.8884 4.51034 26.4984 6.49634 26.4984V30.2984C6.49634 30.4104 6.50434 30.5184 6.51234 30.6284C7.9498 30.9623 9.42061 31.1314 10.8963 31.1324C12.3263 31.1324 13.7183 30.9724 15.0603 30.6784C15.0663 30.5864 15.0743 30.4964 15.0743 30.4024V26.4984H15.4523L19.9603 28.8804C21.4022 28.1161 22.7421 27.1734 23.9483 26.0744C23.9403 26.0744 23.9303 26.0764 23.9223 26.0764C23.0163 26.0764 22.2823 25.3424 22.2823 24.4364V13.5764C22.2823 12.6704 23.0163 11.9364 23.9223 11.9364C24.8283 11.9364 25.5623 12.6704 25.5623 13.5764V24.4084C26.7178 23.0714 27.6854 21.583 28.4383 19.9844Z" fill="#9F72FF"/>
  <path d="M22.2823 14.7219V13.5759C22.2823 12.7699 22.8623 12.1019 23.6283 11.9639C24.5168 9.7072 24.9721 7.30326 24.9703 4.87793C24.9703 4.79393 24.9643 4.71193 24.9643 4.62793L15.5183 10.0999H6.49634C4.51234 10.0999 2.90234 11.7099 2.90234 13.6939V22.9039C2.90234 23.3199 2.97634 23.7159 3.10634 24.0879C3.92234 24.1919 4.75234 24.2519 5.59834 24.2519C12.7023 24.2519 18.9103 20.4239 22.2823 14.7219Z" fill="#9F72FF"/>
  <path d="M16.1583 9.72803L15.5183 10.098H6.49634C4.51234 10.098 2.90234 11.708 2.90234 13.692V17.27C8.30634 16.666 13.0343 13.842 16.1583 9.72803Z" fill="#9F72FF"/>
</svg>