<svg xmlns="http://www.w3.org/2000/svg" width="60" height="60" viewBox="0 0 60 60" fill="none">
  <g filter="url(#filter0_i_3781_212)">
    <path d="M29.9995 4.61524C31.3108 4.61373 32.6073 4.89233 33.8023 5.43239C34.9972 5.97245 36.0631 6.76152 36.9284 7.74678L42.4162 7.48601C43.3443 7.44169 44.2641 7.6785 45.0554 8.16548C45.8467 8.65245 46.4726 9.36691 46.8512 10.2154C47.2299 11.0639 47.3436 12.0069 47.1775 12.921C47.0115 13.8352 46.5733 14.678 45.9205 15.3391L41.9454 19.3625C47.0294 22.2852 51.0956 27.0149 53.4125 32.7622C55.4399 37.786 55.9037 43.4202 54.8053 49.6614C54.523 51.2649 53.6847 52.7177 52.4375 53.7644C51.1903 54.8111 49.6141 55.3847 47.9859 55.3845H12.013C10.3848 55.3847 8.8086 54.8111 7.56142 53.7644C6.31424 52.7177 5.47587 51.2649 5.19365 49.6614C4.09633 43.4202 4.56018 37.7883 6.58637 32.7622C8.90564 27.0125 12.9742 22.2806 18.0616 19.3591L14.09 15.3402C13.4369 14.6793 12.9985 13.8367 12.8321 12.9225C12.6658 12.0084 12.7792 11.0653 13.1576 10.2167C13.5359 9.36809 14.1616 8.65343 14.9528 8.16622C15.744 7.67901 16.6638 7.44193 17.5919 7.48601L23.0728 7.74678C23.9379 6.76181 25.0033 5.97292 26.1979 5.43287C27.3924 4.89282 28.6885 4.61406 29.9995 4.61524Z" fill="url(#paint0_linear_3781_212)"/>
  </g>
  <path d="M33.5124 26.5404C33.7509 26.2146 34.1406 25.9775 34.5965 25.881C35.0524 25.7845 35.5375 25.8363 35.9458 26.0251C36.3542 26.214 36.6527 26.5245 36.7763 26.889C36.8998 27.2534 36.8384 27.6423 36.6053 27.9706L33.7172 31.3362L36.547 31.3372C37.0206 31.3372 37.4748 31.4878 37.8097 31.7561C38.1445 32.0243 38.3327 32.388 38.3327 32.7674C38.3327 33.1467 38.1445 33.5104 37.8097 33.7786C37.4748 34.0469 37.0206 34.1975 36.547 34.1975H31.7851V37.0579H36.547C37.0206 37.0579 37.4748 37.2086 37.8097 37.4768C38.1445 37.745 38.3327 38.1088 38.3327 38.4881C38.3327 38.8674 38.1445 39.2312 37.8097 39.4994C37.4748 39.7676 37.0206 39.9183 36.547 39.9183H31.7851V43.57C31.7851 43.9493 31.5969 44.3131 31.262 44.5813C30.9272 44.8495 30.4729 45.0002 29.9993 45.0002C29.5257 45.0002 29.0715 44.8495 28.7367 44.5813C28.4018 44.3131 28.2136 43.9493 28.2136 43.57V39.9183H23.4517C22.9781 39.9183 22.5239 39.7676 22.189 39.4994C21.8542 39.2312 21.666 38.8674 21.666 38.4881C21.666 38.1088 21.8542 37.745 22.189 37.4768C22.5239 37.2086 22.9781 37.0579 23.4517 37.0579H28.2136V34.1975H23.4517C22.9781 34.1975 22.5239 34.0469 22.189 33.7786C21.8542 33.5104 21.666 33.1467 21.666 32.7674C21.666 32.388 21.8542 32.0243 22.189 31.7561C22.5239 31.4878 22.9781 31.3372 23.4517 31.3372H26.2803L23.3934 27.9706C23.1603 27.6423 23.0989 27.2534 23.2224 26.889C23.346 26.5245 23.6445 26.214 24.0529 26.0251C24.4612 25.8363 24.9463 25.7845 25.4022 25.881C25.8581 25.9775 26.2478 26.2146 26.4863 26.5404L29.9993 30.7737L33.5124 26.5404Z" fill="#FFFEE2"/>
  <defs>
    <filter id="filter0_i_3781_212" x="2.61523" y="2.61523" width="52.7695" height="52.769" filterUnits="userSpaceOnUse" color-interpolation-filters="sRGB">
      <feFlood flood-opacity="0" result="BackgroundImageFix"/>
      <feBlend mode="normal" in="SourceGraphic" in2="BackgroundImageFix" result="shape"/>
      <feColorMatrix in="SourceAlpha" type="matrix" values="0 0 0 0 0 0 0 0 0 0 0 0 0 0 0 0 0 0 127 0" result="hardAlpha"/>
      <feOffset dx="-2" dy="-2"/>
      <feGaussianBlur stdDeviation="4"/>
      <feComposite in2="hardAlpha" operator="arithmetic" k2="-1" k3="1"/>
      <feColorMatrix type="matrix" values="0 0 0 0 1 0 0 0 0 0.493434 0 0 0 0 0.0166667 0 0 0 1 0"/>
      <feBlend mode="normal" in2="shape" result="effect1_innerShadow_3781_212"/>
    </filter>
    <linearGradient id="paint0_linear_3781_212" x1="8.01731" y1="6.3686" x2="28.8982" y2="30.1006" gradientUnits="userSpaceOnUse">
      <stop stop-color="#FFDC82"/>
      <stop offset="1" stop-color="#FF9737"/>
    </linearGradient>
  </defs>
</svg>